<?xml version="1.0" encoding="UTF-8"?>
<svg id="Layer_2" data-name="Layer 2" xmlns="http://www.w3.org/2000/svg" xmlns:xlink="http://www.w3.org/1999/xlink" viewBox="0 0 650.27 557.89">
  <defs>
    <style>
      .cls-1 {
        clip-path: url(#clippath-4);
      }

      .cls-2 {
        fill: url(#linear-gradient-2);
      }

      .cls-3 {
        fill: none;
      }

      .cls-4 {
        fill: url(#linear-gradient-3);
      }

      .cls-5 {
        clip-path: url(#clippath-1);
      }

      .cls-6 {
        clip-path: url(#clippath-5);
      }

      .cls-7 {
        clip-path: url(#clippath-3);
      }

      .cls-8 {
        clip-path: url(#clippath-2);
      }

      .cls-9 {
        fill: url(#linear-gradient);
      }

      .cls-10 {
        clip-path: url(#clippath);
      }
    </style>
    <clipPath id="clippath">
      <rect class="cls-3" width="650.27" height="185.71"/>
    </clipPath>
    <clipPath id="clippath-1">
      <path class="cls-3" d="M92.9,26.64v13.15c-5.01.22-9.71.75-14.55,2.1-18.73,5.21-33.52,21.05-37.41,40.1-.75,3.69-.95,7.23-1.21,10.96h-13.15c.22-14.53-12.04-26.77-26.58-26.58v-13.15c12.04-.38,23.74,5.53,31.2,14.82,2.57-5.38,5.22-10.46,8.83-15.23,12.3-16.28,32.31-26.4,52.87-26.17M0,13.07c1.36.83,3.51.31,5.17.42,14.91,1.04,29.2,6.24,41.36,14.78,11.96-8.64,26.41-13.75,41.18-14.78,1.66-.12,3.81.41,5.17-.42V.48c-.51-.62-1.62-.47-2.39-.43-15.44.82-30.52,4.59-43.94,12.32-3.43-1.49-6.72-3.41-10.2-4.89C25.54,2.9,14.14.67,2.39.05,1.82.02.18-.11,0,.48v12.59ZM53.16,92.95h13.15c-.22-14.53,12.04-26.77,26.58-26.58v-13.15c-21.5-.67-40.44,18.2-39.73,39.73M27.29,47.35l8.53-10.21C25.27,30.25,12.65,26.54,0,26.64v13.15c9.65.19,18.98,2.67,27.29,7.56M79.46,92.26l.43.7h12.59l.42-.42v-13.01c-7.2.12-12.91,5.58-13.44,12.74M0,92.53l.42.42h12.59c.79,0,0-3.24-.15-3.76-1.07-3.8-4.46-7.6-8.23-8.84-.81-.27-3.23-.86-3.96-.81-.27.02-.6.18-.67.4v12.59ZM132.92,52.81c-3.6,4.77-6.26,9.85-8.83,15.23-7.46-9.3-19.15-15.21-31.2-14.82v13.15c14.54-.18,26.8,12.05,26.58,26.58h13.15c.26-3.73.45-7.28,1.21-10.96,3.89-19.05,18.68-34.89,37.41-40.1,4.84-1.34,9.54-1.88,14.55-2.1v-13.15c-20.57-.23-40.57,9.89-52.87,26.17M92.9,13.07c1.36.83,3.51.31,5.17.42,14.91,1.04,29.2,6.24,41.36,14.78,11.96-8.64,26.41-13.75,41.18-14.78,1.66-.12,3.81.41,5.17-.42V.48c-.51-.62-1.62-.47-2.39-.43-15.44.82-30.52,4.59-43.93,12.32-3.43-1.49-6.72-3.41-10.2-4.89C118.43,2.9,107.03.67,95.29.05c-.57-.03-2.21-.15-2.39.43v12.59ZM146.06,92.95h13.15c-.22-14.53,12.04-26.77,26.58-26.58v-13.15c-21.5-.67-40.44,18.2-39.73,39.73M120.18,47.35l8.53-10.21c-10.55-6.88-23.17-10.6-35.82-10.5v13.15c9.65.19,18.98,2.67,27.29,7.56M172.35,92.26l.43.7h12.59l.42-.42v-13.01c-7.2.12-12.91,5.58-13.44,12.74M92.9,92.53l.42.42h12.59c.79,0,0-3.24-.15-3.76-1.07-3.8-4.46-7.6-8.23-8.84-.81-.27-3.23-.86-3.96-.81-.27.02-.6.18-.67.4v12.59ZM225.82,52.81c-3.6,4.77-6.26,9.85-8.83,15.23-7.46-9.3-19.15-15.21-31.2-14.82v13.15c14.54-.18,26.8,12.05,26.58,26.58h13.15c.26-3.73.45-7.28,1.21-10.96,3.89-19.05,18.68-34.89,37.41-40.1,4.84-1.34,9.54-1.88,14.55-2.1v-13.15c-20.57-.23-40.57,9.89-52.87,26.17M185.79,13.07c1.36.83,3.51.31,5.17.42,14.91,1.04,29.2,6.24,41.36,14.78,11.96-8.64,26.41-13.75,41.19-14.78,1.66-.12,3.81.41,5.17-.42V.48c-.51-.62-1.62-.47-2.39-.43-15.44.82-30.52,4.59-43.93,12.32-3.43-1.49-6.72-3.41-10.2-4.89C211.33,2.9,199.93.67,188.18.05c-.57-.03-2.21-.15-2.39.43v12.59ZM238.96,92.95h13.15c-.22-14.53,12.04-26.77,26.58-26.58v-13.15c-21.5-.67-40.44,18.2-39.73,39.73M213.08,47.35l8.53-10.21c-10.54-6.88-23.17-10.6-35.82-10.5v13.15c9.65.19,18.98,2.67,27.29,7.56M265.25,92.26l.43.7h12.59l.42-.42v-13.01c-7.2.12-12.91,5.58-13.44,12.74M185.79,92.53l.42.42h12.59c.79,0,0-3.24-.16-3.76-1.06-3.8-4.45-7.6-8.23-8.84-.81-.27-3.23-.86-3.96-.81-.27.02-.6.18-.67.4v12.59ZM318.71,52.81c-3.6,4.77-6.26,9.85-8.83,15.23-7.46-9.3-19.15-15.21-31.2-14.82v13.15c14.54-.18,26.8,12.05,26.58,26.58h13.15c.26-3.73.45-7.28,1.21-10.96,3.89-19.05,18.68-34.89,37.41-40.1,4.84-1.34,9.54-1.88,14.55-2.1v-13.15c-20.57-.23-40.57,9.89-52.87,26.17M278.69,13.07c1.36.83,3.51.31,5.17.42,14.91,1.04,29.2,6.24,41.36,14.78,11.96-8.64,26.41-13.75,41.19-14.78,1.66-.12,3.81.41,5.17-.42V.48c-.51-.62-1.62-.47-2.39-.43-15.44.82-30.52,4.59-43.94,12.32-3.42-1.49-6.72-3.41-10.2-4.89-10.83-4.58-22.23-6.81-33.98-7.44-.57-.03-2.21-.15-2.39.43v12.59ZM331.85,92.95h13.15c-.22-14.53,12.04-26.77,26.58-26.58v-13.15c-21.5-.67-40.44,18.2-39.73,39.73M305.97,47.35l8.53-10.21c-10.54-6.88-23.17-10.6-35.82-10.5v13.15c9.65.19,18.98,2.67,27.29,7.56M358.15,92.26l.43.7h12.59l.42-.42v-13.01c-7.2.12-12.91,5.58-13.44,12.74M278.69,92.53l.42.42h12.59c.79,0,0-3.24-.16-3.76-1.06-3.8-4.45-7.6-8.23-8.84-.81-.27-3.23-.86-3.96-.81-.27.02-.6.18-.67.4v12.59ZM331.56,132.91c3.6-4.77,6.26-9.85,8.82-15.23,7.46,9.29,19.15,15.21,31.2,14.82v-13.15c-14.54.19-26.8-12.05-26.58-26.58h-13.15c-.26,3.73-.45,7.28-1.21,10.96-3.88,19.04-18.68,34.89-37.41,40.1-4.84,1.35-9.54,1.88-14.55,2.1v13.15c20.56.23,40.57-9.89,52.87-26.17M371.59,172.65c-1.36-.83-3.51-.31-5.17-.42-14.91-1.05-29.2-6.24-41.36-14.78-11.96,8.64-26.41,13.75-41.18,14.78-1.66.12-3.81-.41-5.17.42v12.59c.51.62,1.62.47,2.39.43,15.44-.81,30.52-4.59,43.94-12.32,3.42,1.49,6.72,3.41,10.2,4.89,10.83,4.58,22.23,6.82,33.97,7.44.57.03,2.21.15,2.39-.43v-12.59ZM318.42,92.77h-13.15c.22,14.53-12.04,26.77-26.58,26.58v13.15c21.5.67,40.44-18.2,39.73-39.73M344.3,138.37l-8.53,10.21c10.54,6.89,23.17,10.6,35.82,10.5v-13.15c-9.65-.2-18.98-2.67-27.29-7.56M292.13,93.46l-.43-.7h-12.59l-.42.42v13.01c7.2-.12,12.9-5.58,13.44-12.73M371.59,93.19l-.42-.42h-12.59c-.79,0,0,3.24.16,3.76,1.06,3.8,4.46,7.6,8.23,8.84.82.27,3.23.86,3.96.81.27-.02.6-.18.67-.41v-12.59ZM238.66,132.91c3.6-4.77,6.26-9.85,8.82-15.23,7.46,9.29,19.15,15.21,31.2,14.82v-13.15c-14.54.19-26.8-12.05-26.58-26.58h-13.15c-.26,3.73-.45,7.28-1.21,10.96-3.88,19.04-18.68,34.89-37.41,40.1-4.84,1.35-9.54,1.88-14.55,2.1v13.15c20.56.23,40.57-9.89,52.87-26.17M278.69,172.65c-1.36-.83-3.51-.31-5.17-.42-14.91-1.05-29.2-6.24-41.36-14.78-11.96,8.64-26.41,13.75-41.18,14.78-1.66.12-3.81-.41-5.17.42v12.59c.51.62,1.62.47,2.39.43,15.44-.81,30.52-4.59,43.94-12.32,3.42,1.49,6.72,3.41,10.2,4.89,10.83,4.58,22.23,6.82,33.97,7.44.57.03,2.21.15,2.39-.43v-12.59ZM225.53,92.77h-13.15c.22,14.53-12.04,26.77-26.58,26.58v13.15c21.5.67,40.44-18.2,39.73-39.73M251.4,138.37l-8.53,10.21c10.54,6.89,23.17,10.6,35.82,10.5v-13.15c-9.65-.2-18.98-2.67-27.29-7.56M199.23,93.46l-.43-.7h-12.59l-.42.42v13.01c7.2-.12,12.9-5.58,13.44-12.73M278.69,93.19l-.42-.42h-12.59c-.79,0,0,3.24.16,3.76,1.06,3.8,4.46,7.6,8.23,8.84.82.27,3.23.86,3.96.81.27-.02.6-.18.67-.41v-12.59ZM145.77,132.91c3.6-4.77,6.26-9.85,8.82-15.23,7.46,9.29,19.15,15.21,31.2,14.82v-13.15c-14.54.19-26.8-12.05-26.58-26.58h-13.15c-.26,3.73-.45,7.28-1.21,10.96-3.88,19.04-18.68,34.89-37.41,40.1-4.84,1.35-9.54,1.88-14.55,2.1v13.15c20.56.23,40.57-9.89,52.87-26.17M185.79,172.65c-1.36-.83-3.51-.31-5.17-.42-14.91-1.05-29.2-6.24-41.36-14.78-11.96,8.64-26.41,13.75-41.18,14.78-1.66.12-3.81-.41-5.17.42v12.59c.51.62,1.62.47,2.39.43,15.44-.81,30.52-4.59,43.94-12.32,3.42,1.49,6.72,3.41,10.2,4.89,10.83,4.58,22.23,6.82,33.97,7.44.57.03,2.21.15,2.39-.43v-12.59ZM132.63,92.77h-13.15c.22,14.53-12.04,26.77-26.58,26.58v13.15c21.5.67,40.44-18.2,39.73-39.73M158.51,138.37l-8.53,10.21c10.54,6.89,23.17,10.6,35.82,10.5v-13.15c-9.65-.2-18.98-2.67-27.29-7.56M106.33,93.46l-.43-.7h-12.59l-.42.42v13.01c7.2-.12,12.9-5.58,13.44-12.73M185.79,93.19l-.42-.42h-12.59c-.79,0,0,3.24.16,3.76,1.06,3.8,4.46,7.6,8.23,8.84.82.27,3.23.86,3.96.81.27-.02.6-.18.67-.41v-12.59ZM52.87,132.91c3.6-4.77,6.26-9.85,8.82-15.23,7.46,9.29,19.15,15.21,31.2,14.82v-13.15c-14.54.19-26.8-12.05-26.58-26.58h-13.15c-.26,3.73-.45,7.28-1.21,10.96-3.88,19.04-18.68,34.89-37.41,40.1-4.84,1.35-9.54,1.88-14.55,2.1v13.15c20.57.23,40.57-9.89,52.87-26.17M92.9,172.65c-1.36-.83-3.51-.31-5.17-.42-14.91-1.05-29.2-6.24-41.36-14.78-11.96,8.64-26.41,13.75-41.18,14.78-1.66.12-3.81-.41-5.17.42v12.59c.51.62,1.62.47,2.39.43,15.44-.81,30.52-4.59,43.94-12.32,3.42,1.49,6.72,3.41,10.2,4.89,10.83,4.58,22.23,6.82,33.98,7.44.57.03,2.21.15,2.39-.43v-12.59ZM39.73,92.77h-13.15c.22,14.53-12.04,26.77-26.58,26.58v13.15c21.5.67,40.44-18.2,39.73-39.73M65.61,138.37l-8.53,10.21c10.54,6.89,23.17,10.6,35.82,10.5v-13.15c-9.65-.2-18.98-2.67-27.29-7.56M13.44,93.46l-.43-.7H.42l-.42.42v13.01c7.2-.12,12.9-5.58,13.44-12.73M92.9,93.19l-.42-.42h-12.59c-.79,0,0,3.24.16,3.76,1.06,3.8,4.46,7.6,8.23,8.84.81.27,3.23.86,3.96.81.27-.02.6-.18.67-.41v-12.59ZM411.61,52.81c-3.61,4.77-6.26,9.85-8.83,15.23-7.46-9.3-19.15-15.21-31.2-14.82v13.15c14.54-.18,26.8,12.05,26.58,26.58h13.15c.26-3.73.46-7.28,1.21-10.96,3.89-19.05,18.68-34.89,37.41-40.1,4.84-1.34,9.54-1.88,14.55-2.1v-13.15c-20.57-.23-40.57,9.89-52.87,26.17M371.59,13.07c1.36.83,3.51.31,5.17.42,14.92,1.04,29.2,6.24,41.36,14.78,11.96-8.64,26.41-13.75,41.19-14.78,1.66-.12,3.81.41,5.17-.42V.48c-.51-.62-1.62-.47-2.39-.43-15.44.82-30.52,4.59-43.94,12.32-3.42-1.49-6.72-3.41-10.2-4.89-10.83-4.58-22.23-6.81-33.98-7.44-.57-.03-2.21-.15-2.39.43v12.59ZM424.75,92.95h13.15c-.22-14.53,12.04-26.77,26.58-26.58v-13.15c-21.5-.67-40.44,18.2-39.73,39.73M398.87,47.35l8.53-10.21c-10.54-6.88-23.17-10.6-35.82-10.5v13.15c9.65.19,18.98,2.67,27.29,7.56M451.04,92.26l.43.7h12.59l.42-.42v-13.01c-7.2.12-12.91,5.58-13.44,12.74M371.59,92.53l.42.42h12.59c.79,0,0-3.24-.16-3.76-1.06-3.8-4.45-7.6-8.23-8.84-.81-.27-3.23-.86-3.96-.81-.27.02-.6.18-.67.4v12.59ZM504.51,52.81c-3.61,4.77-6.26,9.85-8.83,15.23-7.46-9.3-19.15-15.21-31.2-14.82v13.15c14.54-.18,26.8,12.05,26.58,26.58h13.15c.26-3.73.46-7.28,1.21-10.96,3.89-19.05,18.68-34.89,37.41-40.1,4.84-1.34,9.54-1.88,14.55-2.1v-13.15c-20.57-.23-40.57,9.89-52.87,26.17M464.48,13.07c1.36.83,3.51.31,5.17.42,14.92,1.04,29.2,6.24,41.36,14.78,11.96-8.64,26.41-13.75,41.19-14.78,1.66-.12,3.81.41,5.17-.42V.48c-.51-.62-1.62-.47-2.39-.43-15.44.82-30.52,4.59-43.94,12.32-3.42-1.49-6.72-3.41-10.2-4.89-10.83-4.58-22.23-6.81-33.98-7.44-.57-.03-2.21-.15-2.39.43v12.59ZM517.64,92.95h13.15c-.22-14.53,12.04-26.77,26.58-26.58v-13.15c-21.5-.67-40.44,18.2-39.73,39.73M491.77,47.35l8.53-10.21c-10.54-6.88-23.17-10.6-35.82-10.5v13.15c9.65.19,18.98,2.67,27.29,7.56M543.94,92.26l.43.7h12.59l.42-.42v-13.01c-7.2.12-12.91,5.58-13.44,12.74M464.48,92.53l.42.42h12.59c.79,0,0-3.24-.16-3.76-1.06-3.8-4.45-7.6-8.23-8.84-.81-.27-3.23-.86-3.96-.81-.27.02-.6.18-.67.4v12.59ZM597.4,52.81c-3.61,4.77-6.26,9.85-8.83,15.23-7.46-9.3-19.15-15.21-31.2-14.82v13.15c14.54-.18,26.8,12.05,26.58,26.58h13.15c.26-3.73.46-7.28,1.21-10.96,3.88-19.05,18.68-34.89,37.41-40.1,4.84-1.34,9.53-1.88,14.55-2.1v-13.15c-20.57-.23-40.57,9.89-52.87,26.17M557.38,13.07c1.36.83,3.51.31,5.17.42,14.92,1.04,29.2,6.24,41.36,14.78,11.96-8.64,26.41-13.75,41.19-14.78,1.66-.12,3.81.41,5.17-.42V.48c-.51-.62-1.62-.47-2.39-.43-15.44.82-30.52,4.59-43.94,12.32-3.42-1.49-6.72-3.41-10.2-4.89-10.83-4.58-22.23-6.81-33.98-7.44-.57-.03-2.21-.15-2.39.43v12.59ZM610.54,92.95h13.15c-.22-14.53,12.04-26.77,26.58-26.58v-13.15c-21.5-.67-40.44,18.2-39.73,39.73M584.66,47.35l8.53-10.21c-10.54-6.88-23.17-10.6-35.82-10.5v13.15c9.65.19,18.98,2.67,27.29,7.56M636.83,92.26l.43.7h12.59l.42-.42v-13.01c-7.2.12-12.91,5.58-13.44,12.74M557.38,92.53l.42.42h12.59c.79,0,0-3.24-.16-3.76-1.06-3.8-4.46-7.6-8.23-8.84-.82-.27-3.23-.86-3.96-.81-.27.02-.6.18-.67.4v12.59ZM610.25,132.91c3.61-4.77,6.26-9.85,8.83-15.23,7.46,9.29,19.15,15.21,31.2,14.82v-13.15c-14.54.19-26.8-12.05-26.58-26.58h-13.15c-.26,3.73-.46,7.28-1.21,10.96-3.88,19.04-18.68,34.89-37.41,40.1-4.84,1.35-9.54,1.88-14.55,2.1v13.15c20.56.23,40.57-9.89,52.87-26.17M650.27,172.65c-1.36-.83-3.51-.31-5.17-.42-14.92-1.05-29.2-6.24-41.36-14.78-11.96,8.64-26.41,13.75-41.19,14.78-1.66.12-3.81-.41-5.17.42v12.59c.51.62,1.62.47,2.39.43,15.44-.81,30.52-4.59,43.94-12.32,3.42,1.49,6.72,3.41,10.2,4.89,10.83,4.58,22.23,6.82,33.97,7.44.57.03,2.21.15,2.39-.43v-12.59ZM597.11,92.77h-13.15c.22,14.53-12.04,26.77-26.58,26.58v13.15c21.5.67,40.44-18.2,39.73-39.73M622.99,138.37l-8.53,10.21c10.54,6.89,23.17,10.6,35.82,10.5v-13.15c-9.65-.2-18.98-2.67-27.29-7.56M570.82,93.46l-.43-.7h-12.59l-.42.42v13.01c7.2-.12,12.9-5.58,13.44-12.73M650.27,93.19l-.42-.42h-12.59c-.79,0,0,3.24.16,3.76,1.06,3.8,4.46,7.6,8.23,8.84.82.27,3.23.86,3.96.81.27-.02.6-.18.67-.41v-12.59ZM517.35,132.91c3.6-4.77,6.26-9.85,8.82-15.23,7.46,9.29,19.15,15.21,31.2,14.82v-13.15c-14.54.19-26.8-12.05-26.58-26.58h-13.15c-.26,3.73-.45,7.28-1.21,10.96-3.88,19.04-18.68,34.89-37.41,40.1-4.84,1.35-9.54,1.88-14.55,2.1v13.15c20.56.23,40.57-9.89,52.87-26.17M557.38,172.65c-1.36-.83-3.51-.31-5.17-.42-14.91-1.05-29.2-6.24-41.36-14.78-11.96,8.64-26.41,13.75-41.19,14.78-1.66.12-3.81-.41-5.17.42v12.59c.51.62,1.62.47,2.39.43,15.44-.81,30.52-4.59,43.94-12.32,3.42,1.49,6.72,3.41,10.2,4.89,10.83,4.58,22.23,6.82,33.97,7.44.57.03,2.21.15,2.39-.43v-12.59ZM504.21,92.77h-13.15c.22,14.53-12.04,26.77-26.58,26.58v13.15c21.5.67,40.44-18.2,39.73-39.73M530.09,138.37l-8.53,10.21c10.54,6.89,23.17,10.6,35.82,10.5v-13.15c-9.65-.2-18.98-2.67-27.29-7.56M477.92,93.46l-.43-.7h-12.59l-.42.42v13.01c7.2-.12,12.9-5.58,13.44-12.73M557.38,93.19l-.42-.42h-12.59c-.79,0,0,3.24.16,3.76,1.06,3.8,4.46,7.6,8.23,8.84.82.27,3.23.86,3.96.81.27-.02.6-.18.67-.41v-12.59ZM424.46,132.91c3.6-4.77,6.26-9.85,8.82-15.23,7.46,9.29,19.15,15.21,31.2,14.82v-13.15c-14.54.19-26.8-12.05-26.58-26.58h-13.15c-.26,3.73-.45,7.28-1.21,10.96-3.88,19.04-18.68,34.89-37.41,40.1-4.84,1.35-9.53,1.88-14.55,2.1v13.15c20.56.23,40.57-9.89,52.87-26.17M464.48,172.65c-1.36-.83-3.51-.31-5.17-.42-14.91-1.05-29.2-6.24-41.36-14.78-11.96,8.64-26.41,13.75-41.19,14.78-1.66.12-3.81-.41-5.17.42v12.59c.51.62,1.62.47,2.39.43,15.44-.81,30.52-4.59,43.94-12.32,3.42,1.49,6.72,3.41,10.2,4.89,10.83,4.58,22.23,6.82,33.97,7.44.57.03,2.21.15,2.39-.43v-12.59ZM411.32,92.77h-13.15c.22,14.53-12.04,26.77-26.58,26.58v13.15c21.5.67,40.44-18.2,39.73-39.73M437.19,138.37l-8.53,10.21c10.54,6.89,23.17,10.6,35.82,10.5v-13.15c-9.65-.2-18.98-2.67-27.29-7.56M385.02,93.46l-.43-.7h-12.59l-.42.42v13.01c7.2-.12,12.9-5.58,13.44-12.73M464.48,93.19l-.42-.42h-12.59c-.79,0,0,3.24.16,3.76,1.06,3.8,4.46,7.6,8.23,8.84.82.27,3.23.86,3.96.81.27-.02.6-.18.67-.41v-12.59Z"/>
    </clipPath>
    <linearGradient id="linear-gradient" x1="3251.38" y1="2031.17" x2="3253.31" y2="2031.17" gradientTransform="translate(-1097607.66 685777.41) scale(337.58 -337.58)" gradientUnits="userSpaceOnUse">
      <stop offset="0" stop-color="#9d75b4"/>
      <stop offset=".22" stop-color="#9879b6"/>
      <stop offset=".46" stop-color="#8b85bf"/>
      <stop offset=".7" stop-color="#7599cd"/>
      <stop offset=".95" stop-color="#57b5e1"/>
      <stop offset="1" stop-color="#51bbe6"/>
    </linearGradient>
    <clipPath id="clippath-2">
      <rect class="cls-3" y="186.08" width="650.27" height="185.71"/>
    </clipPath>
    <clipPath id="clippath-3">
      <path class="cls-3" d="M92.9,212.72v13.15c-5.01.22-9.71.75-14.55,2.1-18.73,5.2-33.52,21.05-37.41,40.1-.75,3.69-.95,7.23-1.21,10.96h-13.15c.22-14.53-12.04-26.77-26.58-26.58v-13.15c12.04-.38,23.74,5.53,31.2,14.82,2.57-5.39,5.22-10.46,8.83-15.23,12.3-16.29,32.31-26.4,52.87-26.17M0,199.15c1.36.83,3.51.31,5.17.42,14.91,1.05,29.2,6.24,41.36,14.78,11.96-8.64,26.41-13.75,41.18-14.78,1.66-.12,3.81.41,5.17-.42v-12.59c-.51-.62-1.62-.47-2.39-.43-15.44.82-30.52,4.59-43.94,12.32-3.43-1.49-6.72-3.41-10.2-4.88-10.83-4.58-22.23-6.82-33.98-7.44-.57-.03-2.21-.15-2.39.43v12.59ZM53.16,279.03h13.15c-.22-14.53,12.04-26.77,26.58-26.58v-13.15c-21.5-.67-40.44,18.2-39.73,39.73M27.29,233.43l8.53-10.21c-10.55-6.89-23.17-10.6-35.82-10.5v13.15c9.65.2,18.98,2.67,27.29,7.56M79.46,278.34l.43.7h12.59l.42-.42v-13.01c-7.2.12-12.91,5.58-13.44,12.74M0,278.61l.42.42h12.59c.79,0,0-3.24-.15-3.76-1.07-3.8-4.46-7.6-8.23-8.84-.81-.27-3.23-.86-3.96-.81-.27.02-.6.18-.67.4v12.59ZM132.92,238.89c-3.6,4.77-6.26,9.85-8.83,15.23-7.46-9.3-19.15-15.21-31.2-14.82v13.15c14.54-.19,26.8,12.05,26.58,26.58h13.15c.26-3.73.45-7.28,1.21-10.96,3.89-19.05,18.68-34.9,37.41-40.1,4.84-1.35,9.54-1.88,14.55-2.1v-13.15c-20.57-.23-40.57,9.89-52.87,26.17M92.9,199.15c1.36.83,3.51.31,5.17.42,14.91,1.05,29.2,6.24,41.36,14.78,11.96-8.64,26.41-13.75,41.18-14.78,1.66-.12,3.81.41,5.17-.42v-12.59c-.51-.62-1.62-.47-2.39-.43-15.44.82-30.52,4.59-43.93,12.32-3.43-1.49-6.72-3.41-10.2-4.88-10.83-4.58-22.23-6.82-33.98-7.44-.57-.03-2.21-.15-2.39.43v12.59ZM146.06,279.03h13.15c-.22-14.53,12.04-26.77,26.58-26.58v-13.15c-21.5-.67-40.44,18.2-39.73,39.73M120.18,233.43l8.53-10.21c-10.55-6.89-23.17-10.6-35.82-10.5v13.15c9.65.2,18.98,2.67,27.29,7.56M172.35,278.34l.43.7h12.59l.42-.42v-13.01c-7.2.12-12.91,5.58-13.44,12.74M92.9,278.61l.42.42h12.59c.79,0,0-3.24-.15-3.76-1.07-3.8-4.46-7.6-8.23-8.84-.81-.27-3.23-.86-3.96-.81-.27.02-.6.18-.67.4v12.59ZM225.82,238.89c-3.6,4.77-6.26,9.85-8.83,15.23-7.46-9.3-19.15-15.21-31.2-14.82v13.15c14.54-.19,26.8,12.05,26.58,26.58h13.15c.26-3.73.45-7.28,1.21-10.96,3.89-19.05,18.68-34.9,37.41-40.1,4.84-1.35,9.54-1.88,14.55-2.1v-13.15c-20.57-.23-40.57,9.89-52.87,26.17M185.79,199.15c1.36.83,3.51.31,5.17.42,14.91,1.05,29.2,6.24,41.36,14.78,11.96-8.64,26.41-13.75,41.19-14.78,1.66-.12,3.81.41,5.17-.42v-12.59c-.51-.62-1.62-.47-2.39-.43-15.44.82-30.52,4.59-43.93,12.32-3.43-1.49-6.72-3.41-10.2-4.88-10.83-4.58-22.23-6.82-33.98-7.44-.57-.03-2.21-.15-2.39.43v12.59ZM238.96,279.03h13.15c-.22-14.53,12.04-26.77,26.58-26.58v-13.15c-21.5-.67-40.44,18.2-39.73,39.73M213.08,233.43l8.53-10.21c-10.54-6.89-23.17-10.6-35.82-10.5v13.15c9.65.2,18.98,2.67,27.29,7.56M265.25,278.34l.43.7h12.59l.42-.42v-13.01c-7.2.12-12.91,5.58-13.44,12.74M185.79,278.61l.42.42h12.59c.79,0,0-3.24-.16-3.76-1.06-3.8-4.45-7.6-8.23-8.84-.81-.27-3.23-.86-3.96-.81-.27.02-.6.18-.67.4v12.59ZM318.71,238.89c-3.6,4.77-6.26,9.85-8.83,15.23-7.46-9.3-19.15-15.21-31.2-14.82v13.15c14.54-.19,26.8,12.05,26.58,26.58h13.15c.26-3.73.45-7.28,1.21-10.96,3.89-19.05,18.68-34.9,37.41-40.1,4.84-1.35,9.54-1.88,14.55-2.1v-13.15c-20.57-.23-40.57,9.89-52.87,26.17M278.69,199.15c1.36.83,3.51.31,5.17.42,14.91,1.05,29.2,6.24,41.36,14.78,11.96-8.64,26.41-13.75,41.19-14.78,1.66-.12,3.81.41,5.17-.42v-12.59c-.51-.62-1.62-.47-2.39-.43-15.44.82-30.52,4.59-43.94,12.32-3.42-1.49-6.72-3.41-10.2-4.88-10.83-4.58-22.23-6.82-33.98-7.44-.57-.03-2.21-.15-2.39.43v12.59ZM331.85,279.03h13.15c-.22-14.53,12.04-26.77,26.58-26.58v-13.15c-21.5-.67-40.44,18.2-39.73,39.73M305.97,233.43l8.53-10.21c-10.54-6.89-23.17-10.6-35.82-10.5v13.15c9.65.2,18.98,2.67,27.29,7.56M358.15,278.34l.43.7h12.59l.42-.42v-13.01c-7.2.12-12.91,5.58-13.44,12.74M278.69,278.61l.42.42h12.59c.79,0,0-3.24-.16-3.76-1.06-3.8-4.45-7.6-8.23-8.84-.81-.27-3.23-.86-3.96-.81-.27.02-.6.18-.67.4v12.59ZM331.56,318.99c3.6-4.77,6.26-9.85,8.82-15.23,7.46,9.3,19.15,15.21,31.2,14.82v-13.15c-14.54.18-26.8-12.05-26.58-26.58h-13.15c-.26,3.73-.45,7.28-1.21,10.96-3.88,19.05-18.68,34.89-37.41,40.1-4.84,1.34-9.54,1.88-14.55,2.1v13.15c20.56.23,40.57-9.89,52.87-26.17M371.59,358.73c-1.36-.83-3.51-.31-5.17-.42-14.91-1.04-29.2-6.24-41.36-14.78-11.96,8.64-26.41,13.75-41.18,14.78-1.66.12-3.81-.41-5.17.42v12.59c.51.62,1.62.47,2.39.43,15.44-.82,30.52-4.59,43.94-12.32,3.42,1.49,6.72,3.41,10.2,4.89,10.83,4.58,22.23,6.81,33.97,7.44.57.03,2.21.15,2.39-.43v-12.59ZM318.42,278.85h-13.15c.22,14.53-12.04,26.77-26.58,26.58v13.15c21.5.67,40.44-18.2,39.73-39.73M344.3,324.45l-8.53,10.21c10.54,6.88,23.17,10.6,35.82,10.5v-13.15c-9.65-.19-18.98-2.67-27.29-7.56M292.13,279.54l-.43-.7h-12.59l-.42.42v13.01c7.2-.12,12.9-5.58,13.44-12.74M371.59,279.27l-.42-.42h-12.59c-.79,0,0,3.24.16,3.76,1.06,3.8,4.46,7.6,8.23,8.84.82.27,3.23.86,3.96.81.27-.02.6-.18.67-.4v-12.59ZM238.66,318.99c3.6-4.77,6.26-9.85,8.82-15.23,7.46,9.3,19.15,15.21,31.2,14.82v-13.15c-14.54.18-26.8-12.05-26.58-26.58h-13.15c-.26,3.73-.45,7.28-1.21,10.96-3.88,19.05-18.68,34.89-37.41,40.1-4.84,1.34-9.54,1.88-14.55,2.1v13.15c20.56.23,40.57-9.89,52.87-26.17M278.69,358.73c-1.36-.83-3.51-.31-5.17-.42-14.91-1.04-29.2-6.24-41.36-14.78-11.96,8.64-26.41,13.75-41.18,14.78-1.66.12-3.81-.41-5.17.42v12.59c.51.62,1.62.47,2.39.43,15.44-.82,30.52-4.59,43.94-12.32,3.42,1.49,6.72,3.41,10.2,4.89,10.83,4.58,22.23,6.81,33.97,7.44.57.03,2.21.15,2.39-.43v-12.59ZM225.53,278.85h-13.15c.22,14.53-12.04,26.77-26.58,26.58v13.15c21.5.67,40.44-18.2,39.73-39.73M251.4,324.45l-8.53,10.21c10.54,6.88,23.17,10.6,35.82,10.5v-13.15c-9.65-.19-18.98-2.67-27.29-7.56M199.23,279.54l-.43-.7h-12.59l-.42.42v13.01c7.2-.12,12.9-5.58,13.44-12.74M278.69,279.27l-.42-.42h-12.59c-.79,0,0,3.24.16,3.76,1.06,3.8,4.46,7.6,8.23,8.84.82.27,3.23.86,3.96.81.27-.02.6-.18.67-.4v-12.59ZM145.77,318.99c3.6-4.77,6.26-9.85,8.82-15.23,7.46,9.3,19.15,15.21,31.2,14.82v-13.15c-14.54.18-26.8-12.05-26.58-26.58h-13.15c-.26,3.73-.45,7.28-1.21,10.96-3.88,19.05-18.68,34.89-37.41,40.1-4.84,1.34-9.54,1.88-14.55,2.1v13.15c20.56.23,40.57-9.89,52.87-26.17M185.79,358.73c-1.36-.83-3.51-.31-5.17-.42-14.91-1.04-29.2-6.24-41.36-14.78-11.96,8.64-26.41,13.75-41.18,14.78-1.66.12-3.81-.41-5.17.42v12.59c.51.62,1.62.47,2.39.43,15.44-.82,30.52-4.59,43.94-12.32,3.42,1.49,6.72,3.41,10.2,4.89,10.83,4.58,22.23,6.81,33.97,7.44.57.03,2.21.15,2.39-.43v-12.59ZM132.63,278.85h-13.15c.22,14.53-12.04,26.77-26.58,26.58v13.15c21.5.67,40.44-18.2,39.73-39.73M158.51,324.45l-8.53,10.21c10.54,6.88,23.17,10.6,35.82,10.5v-13.15c-9.65-.19-18.98-2.67-27.29-7.56M106.33,279.54l-.43-.7h-12.59l-.42.42v13.01c7.2-.12,12.9-5.58,13.44-12.74M185.79,279.27l-.42-.42h-12.59c-.79,0,0,3.24.16,3.76,1.06,3.8,4.46,7.6,8.23,8.84.82.27,3.23.86,3.96.81.27-.02.6-.18.67-.4v-12.59ZM52.87,318.99c3.6-4.77,6.26-9.85,8.82-15.23,7.46,9.3,19.15,15.21,31.2,14.82v-13.15c-14.54.18-26.8-12.05-26.58-26.58h-13.15c-.26,3.73-.45,7.28-1.21,10.96-3.88,19.05-18.68,34.89-37.41,40.1-4.84,1.34-9.54,1.88-14.55,2.1v13.15c20.57.23,40.57-9.89,52.87-26.17M92.9,358.73c-1.36-.83-3.51-.31-5.17-.42-14.91-1.04-29.2-6.24-41.36-14.78-11.96,8.64-26.41,13.75-41.18,14.78-1.66.12-3.81-.41-5.17.42v12.59c.51.62,1.62.47,2.39.43,15.44-.82,30.52-4.59,43.94-12.32,3.42,1.49,6.72,3.41,10.2,4.89,10.83,4.58,22.23,6.81,33.98,7.44.57.03,2.21.15,2.39-.43v-12.59ZM39.73,278.85h-13.15c.22,14.53-12.04,26.77-26.58,26.58v13.15c21.5.67,40.44-18.2,39.73-39.73M65.61,324.45l-8.53,10.21c10.54,6.88,23.17,10.6,35.82,10.5v-13.15c-9.65-.19-18.98-2.67-27.29-7.56M13.44,279.54l-.43-.7H.42l-.42.42v13.01c7.2-.12,12.9-5.58,13.44-12.74M92.9,279.27l-.42-.42h-12.59c-.79,0,0,3.24.16,3.76,1.06,3.8,4.46,7.6,8.23,8.84.81.27,3.23.86,3.96.81.27-.02.6-.18.67-.4v-12.59ZM411.61,238.89c-3.61,4.77-6.26,9.85-8.83,15.23-7.46-9.3-19.15-15.21-31.2-14.82v13.15c14.54-.19,26.8,12.05,26.58,26.58h13.15c.26-3.73.46-7.28,1.21-10.96,3.89-19.05,18.68-34.9,37.41-40.1,4.84-1.35,9.54-1.88,14.55-2.1v-13.15c-20.57-.23-40.57,9.89-52.87,26.17M371.59,199.15c1.36.83,3.51.31,5.17.42,14.92,1.05,29.2,6.24,41.36,14.78,11.96-8.64,26.41-13.75,41.19-14.78,1.66-.12,3.81.41,5.17-.42v-12.59c-.51-.62-1.62-.47-2.39-.43-15.44.82-30.52,4.59-43.94,12.32-3.42-1.49-6.72-3.41-10.2-4.88-10.83-4.58-22.23-6.82-33.98-7.44-.57-.03-2.21-.15-2.39.43v12.59ZM424.75,279.03h13.15c-.22-14.53,12.04-26.77,26.58-26.58v-13.15c-21.5-.67-40.44,18.2-39.73,39.73M398.87,233.43l8.53-10.21c-10.54-6.89-23.17-10.6-35.82-10.5v13.15c9.65.2,18.98,2.67,27.29,7.56M451.04,278.34l.43.7h12.59l.42-.42v-13.01c-7.2.12-12.91,5.58-13.44,12.74M371.59,278.61l.42.42h12.59c.79,0,0-3.24-.16-3.76-1.06-3.8-4.45-7.6-8.23-8.84-.81-.27-3.23-.86-3.96-.81-.27.02-.6.18-.67.4v12.59ZM504.51,238.89c-3.61,4.77-6.26,9.85-8.83,15.23-7.46-9.3-19.15-15.21-31.2-14.82v13.15c14.54-.19,26.8,12.05,26.58,26.58h13.15c.26-3.73.46-7.28,1.21-10.96,3.89-19.05,18.68-34.9,37.41-40.1,4.84-1.35,9.54-1.88,14.55-2.1v-13.15c-20.57-.23-40.57,9.89-52.87,26.17M464.48,199.15c1.36.83,3.51.31,5.17.42,14.92,1.05,29.2,6.24,41.36,14.78,11.96-8.64,26.41-13.75,41.19-14.78,1.66-.12,3.81.41,5.17-.42v-12.59c-.51-.62-1.62-.47-2.39-.43-15.44.82-30.52,4.59-43.94,12.32-3.42-1.49-6.72-3.41-10.2-4.88-10.83-4.58-22.23-6.82-33.98-7.44-.57-.03-2.21-.15-2.39.43v12.59ZM517.64,279.03h13.15c-.22-14.53,12.04-26.77,26.58-26.58v-13.15c-21.5-.67-40.44,18.2-39.73,39.73M491.77,233.43l8.53-10.21c-10.54-6.89-23.17-10.6-35.82-10.5v13.15c9.65.2,18.98,2.67,27.29,7.56M543.94,278.34l.43.7h12.59l.42-.42v-13.01c-7.2.12-12.91,5.58-13.44,12.74M464.48,278.61l.42.42h12.59c.79,0,0-3.24-.16-3.76-1.06-3.8-4.45-7.6-8.23-8.84-.81-.27-3.23-.86-3.96-.81-.27.02-.6.18-.67.4v12.59ZM597.4,238.89c-3.61,4.77-6.26,9.85-8.83,15.23-7.46-9.3-19.15-15.21-31.2-14.82v13.15c14.54-.19,26.8,12.05,26.58,26.58h13.15c.26-3.73.46-7.28,1.21-10.96,3.88-19.05,18.68-34.9,37.41-40.1,4.84-1.35,9.53-1.88,14.55-2.1v-13.15c-20.57-.23-40.57,9.89-52.87,26.17M557.38,199.15c1.36.83,3.51.31,5.17.42,14.92,1.05,29.2,6.24,41.36,14.78,11.96-8.64,26.41-13.75,41.19-14.78,1.66-.12,3.81.41,5.17-.42v-12.59c-.51-.62-1.62-.47-2.39-.43-15.44.82-30.52,4.59-43.94,12.32-3.42-1.49-6.72-3.41-10.2-4.88-10.83-4.58-22.23-6.82-33.98-7.44-.57-.03-2.21-.15-2.39.43v12.59ZM610.54,279.03h13.15c-.22-14.53,12.04-26.77,26.58-26.58v-13.15c-21.5-.67-40.44,18.2-39.73,39.73M584.66,233.43l8.53-10.21c-10.54-6.89-23.17-10.6-35.82-10.5v13.15c9.65.2,18.98,2.67,27.29,7.56M636.83,278.34l.43.7h12.59l.42-.42v-13.01c-7.2.12-12.91,5.58-13.44,12.74M557.38,278.61l.42.42h12.59c.79,0,0-3.24-.16-3.76-1.06-3.8-4.46-7.6-8.23-8.84-.82-.27-3.23-.86-3.96-.81-.27.02-.6.18-.67.4v12.59ZM610.25,318.99c3.61-4.77,6.26-9.85,8.83-15.23,7.46,9.3,19.15,15.21,31.2,14.82v-13.15c-14.54.18-26.8-12.05-26.58-26.58h-13.15c-.26,3.73-.46,7.28-1.21,10.96-3.88,19.05-18.68,34.89-37.41,40.1-4.84,1.34-9.54,1.88-14.55,2.1v13.15c20.56.23,40.57-9.89,52.87-26.17M650.27,358.73c-1.36-.83-3.51-.31-5.17-.42-14.92-1.04-29.2-6.24-41.36-14.78-11.96,8.64-26.41,13.75-41.19,14.78-1.66.12-3.81-.41-5.17.42v12.59c.51.62,1.62.47,2.39.43,15.44-.82,30.52-4.59,43.94-12.32,3.42,1.49,6.72,3.41,10.2,4.89,10.83,4.58,22.23,6.81,33.97,7.44.57.03,2.21.15,2.39-.43v-12.59ZM597.11,278.85h-13.15c.22,14.53-12.04,26.77-26.58,26.58v13.15c21.5.67,40.44-18.2,39.73-39.73M622.99,324.45l-8.53,10.21c10.54,6.88,23.17,10.6,35.82,10.5v-13.15c-9.65-.19-18.98-2.67-27.29-7.56M570.82,279.54l-.43-.7h-12.59l-.42.42v13.01c7.2-.12,12.9-5.58,13.44-12.74M650.27,279.27l-.42-.42h-12.59c-.79,0,0,3.24.16,3.76,1.06,3.8,4.46,7.6,8.23,8.84.82.27,3.23.86,3.96.81.27-.02.6-.18.67-.4v-12.59ZM517.35,318.99c3.6-4.77,6.26-9.85,8.82-15.23,7.46,9.3,19.15,15.21,31.2,14.82v-13.15c-14.54.18-26.8-12.05-26.58-26.58h-13.15c-.26,3.73-.45,7.28-1.21,10.96-3.88,19.05-18.68,34.89-37.41,40.1-4.84,1.34-9.54,1.88-14.55,2.1v13.15c20.56.23,40.57-9.89,52.87-26.17M557.38,358.73c-1.36-.83-3.51-.31-5.17-.42-14.91-1.04-29.2-6.24-41.36-14.78-11.96,8.64-26.41,13.75-41.19,14.78-1.66.12-3.81-.41-5.17.42v12.59c.51.62,1.62.47,2.39.43,15.44-.82,30.52-4.59,43.94-12.32,3.42,1.49,6.72,3.41,10.2,4.89,10.83,4.58,22.23,6.81,33.97,7.44.57.03,2.21.15,2.39-.43v-12.59ZM504.21,278.85h-13.15c.22,14.53-12.04,26.77-26.58,26.58v13.15c21.5.67,40.44-18.2,39.73-39.73M530.09,324.45l-8.53,10.21c10.54,6.88,23.17,10.6,35.82,10.5v-13.15c-9.65-.19-18.98-2.67-27.29-7.56M477.92,279.54l-.43-.7h-12.59l-.42.42v13.01c7.2-.12,12.9-5.58,13.44-12.74M557.38,279.27l-.42-.42h-12.59c-.79,0,0,3.24.16,3.76,1.06,3.8,4.46,7.6,8.23,8.84.82.27,3.23.86,3.96.81.27-.02.6-.18.67-.4v-12.59ZM424.46,318.99c3.6-4.77,6.26-9.85,8.82-15.23,7.46,9.3,19.15,15.21,31.2,14.82v-13.15c-14.54.18-26.8-12.05-26.58-26.58h-13.15c-.26,3.73-.45,7.28-1.21,10.96-3.88,19.05-18.68,34.89-37.41,40.1-4.84,1.34-9.53,1.88-14.55,2.1v13.15c20.56.23,40.57-9.89,52.87-26.17M464.48,358.73c-1.36-.83-3.51-.31-5.17-.42-14.91-1.04-29.2-6.24-41.36-14.78-11.96,8.64-26.41,13.75-41.19,14.78-1.66.12-3.81-.41-5.17.42v12.59c.51.62,1.62.47,2.39.43,15.44-.82,30.52-4.59,43.94-12.32,3.42,1.49,6.72,3.41,10.2,4.89,10.83,4.58,22.23,6.81,33.97,7.44.57.03,2.21.15,2.39-.43v-12.59ZM411.32,278.85h-13.15c.22,14.53-12.04,26.77-26.58,26.58v13.15c21.5.67,40.44-18.2,39.73-39.73M437.19,324.45l-8.53,10.21c10.54,6.88,23.17,10.6,35.82,10.5v-13.15c-9.65-.19-18.98-2.67-27.29-7.56M385.02,279.54l-.43-.7h-12.59l-.42.42v13.01c7.2-.12,12.9-5.58,13.44-12.74M464.48,279.27l-.42-.42h-12.59c-.79,0,0,3.24.16,3.76,1.06,3.8,4.46,7.6,8.23,8.84.82.27,3.23.86,3.96.81.27-.02.6-.18.67-.4v-12.59Z"/>
    </clipPath>
    <linearGradient id="linear-gradient-2" y1="2030.9" y2="2030.9" gradientTransform="translate(-1097607.66 685874.01) scale(337.58 -337.58)" xlink:href="#linear-gradient"/>
    <clipPath id="clippath-4">
      <rect class="cls-3" y="372.16" width="650.27" height="185.73"/>
    </clipPath>
    <clipPath id="clippath-5">
      <path class="cls-3" d="M92.9,398.8v13.15c-5.01.22-9.71.75-14.55,2.1-18.73,5.2-33.52,21.05-37.41,40.1-.75,3.69-.95,7.24-1.21,10.96h-13.15c.22-14.53-12.04-26.77-26.58-26.58v-13.15c12.04-.39,23.74,5.53,31.2,14.82,2.57-5.38,5.22-10.46,8.83-15.23,12.3-16.29,32.31-26.4,52.87-26.17M0,385.23c1.36.83,3.51.31,5.17.42,14.91,1.05,29.2,6.24,41.36,14.78,11.96-8.64,26.41-13.75,41.18-14.78,1.66-.12,3.81.41,5.17-.42v-12.59c-.51-.62-1.62-.47-2.39-.43-15.44.81-30.52,4.59-43.94,12.32-3.43-1.49-6.72-3.41-10.2-4.89-10.83-4.58-22.23-6.81-33.98-7.43-.57-.03-2.21-.15-2.39.43v12.59ZM53.16,465.11h13.15c-.22-14.53,12.04-26.77,26.58-26.58v-13.15c-21.5-.67-40.44,18.2-39.73,39.73M27.29,419.51l8.53-10.21c-10.55-6.89-23.17-10.6-35.82-10.5v13.15c9.65.19,18.98,2.67,27.29,7.56M79.46,464.42l.43.7h12.59l.42-.42v-13.01c-7.2.12-12.91,5.58-13.44,12.73M0,464.69l.42.42h12.59c.79,0,0-3.24-.15-3.76-1.07-3.8-4.46-7.6-8.23-8.84-.81-.27-3.23-.86-3.96-.81-.27.02-.6.18-.67.41v12.59ZM132.92,424.97c-3.6,4.77-6.26,9.85-8.83,15.23-7.46-9.3-19.15-15.21-31.2-14.82v13.15c14.54-.19,26.8,12.05,26.58,26.58h13.15c.26-3.73.45-7.28,1.21-10.96,3.89-19.04,18.68-34.89,37.41-40.1,4.84-1.35,9.54-1.88,14.55-2.1v-13.15c-20.57-.23-40.57,9.89-52.87,26.17M92.9,385.23c1.36.83,3.51.31,5.17.42,14.91,1.05,29.2,6.24,41.36,14.78,11.96-8.64,26.41-13.75,41.18-14.78,1.66-.12,3.81.41,5.17-.42v-12.59c-.51-.62-1.62-.47-2.39-.43-15.44.81-30.52,4.59-43.93,12.32-3.43-1.49-6.72-3.41-10.2-4.89-10.83-4.58-22.23-6.81-33.98-7.43-.57-.03-2.21-.15-2.39.43v12.59ZM146.06,465.11h13.15c-.22-14.53,12.04-26.77,26.58-26.58v-13.15c-21.5-.67-40.44,18.2-39.73,39.73M120.18,419.51l8.53-10.21c-10.55-6.89-23.17-10.6-35.82-10.5v13.15c9.65.19,18.98,2.67,27.29,7.56M172.35,464.42l.43.7h12.59l.42-.42v-13.01c-7.2.12-12.91,5.58-13.44,12.73M92.9,464.69l.42.42h12.59c.79,0,0-3.24-.15-3.76-1.07-3.8-4.46-7.6-8.23-8.84-.81-.27-3.23-.86-3.96-.81-.27.02-.6.18-.67.41v12.59ZM225.82,424.97c-3.6,4.77-6.26,9.85-8.83,15.23-7.46-9.3-19.15-15.21-31.2-14.82v13.15c14.54-.19,26.8,12.05,26.58,26.58h13.15c.26-3.73.45-7.28,1.21-10.96,3.89-19.04,18.68-34.89,37.41-40.1,4.84-1.35,9.54-1.88,14.55-2.1v-13.15c-20.57-.23-40.57,9.89-52.87,26.17M185.79,385.23c1.36.83,3.51.31,5.17.42,14.91,1.05,29.2,6.24,41.36,14.78,11.96-8.64,26.41-13.75,41.19-14.78,1.66-.12,3.81.41,5.17-.42v-12.59c-.51-.62-1.62-.47-2.39-.43-15.44.81-30.52,4.59-43.93,12.32-3.43-1.49-6.72-3.41-10.2-4.89-10.83-4.58-22.23-6.81-33.98-7.43-.57-.03-2.21-.15-2.39.43v12.59ZM238.96,465.11h13.15c-.22-14.53,12.04-26.77,26.58-26.58v-13.15c-21.5-.67-40.44,18.2-39.73,39.73M213.08,419.51l8.53-10.21c-10.54-6.89-23.17-10.6-35.82-10.5v13.15c9.65.19,18.98,2.67,27.29,7.56M265.25,464.42l.43.7h12.59l.42-.42v-13.01c-7.2.12-12.91,5.58-13.44,12.73M185.79,464.69l.42.42h12.59c.79,0,0-3.24-.16-3.76-1.06-3.8-4.45-7.6-8.23-8.84-.81-.27-3.23-.86-3.96-.81-.27.02-.6.18-.67.41v12.59ZM318.71,424.97c-3.6,4.77-6.26,9.85-8.83,15.23-7.46-9.3-19.15-15.21-31.2-14.82v13.15c14.54-.19,26.8,12.05,26.58,26.58h13.15c.26-3.73.45-7.28,1.21-10.96,3.89-19.04,18.68-34.89,37.41-40.1,4.84-1.35,9.54-1.88,14.55-2.1v-13.15c-20.57-.23-40.57,9.89-52.87,26.17M278.69,385.23c1.36.83,3.51.31,5.17.42,14.91,1.05,29.2,6.24,41.36,14.78,11.96-8.64,26.41-13.75,41.19-14.78,1.66-.12,3.81.41,5.17-.42v-12.59c-.51-.62-1.62-.47-2.39-.43-15.44.81-30.52,4.59-43.94,12.32-3.42-1.49-6.72-3.41-10.2-4.89-10.83-4.58-22.23-6.81-33.98-7.43-.57-.03-2.21-.15-2.39.43v12.59ZM331.85,465.11h13.15c-.22-14.53,12.04-26.77,26.58-26.58v-13.15c-21.5-.67-40.44,18.2-39.73,39.73M305.97,419.51l8.53-10.21c-10.54-6.89-23.17-10.6-35.82-10.5v13.15c9.65.19,18.98,2.67,27.29,7.56M358.15,464.42l.43.7h12.59l.42-.42v-13.01c-7.2.12-12.91,5.58-13.44,12.73M278.69,464.69l.42.42h12.59c.79,0,0-3.24-.16-3.76-1.06-3.8-4.45-7.6-8.23-8.84-.81-.27-3.23-.86-3.96-.81-.27.02-.6.18-.67.41v12.59ZM331.56,505.07c3.6-4.77,6.26-9.85,8.82-15.23,7.46,9.3,19.15,15.21,31.2,14.82v-13.15c-14.54.19-26.8-12.05-26.58-26.58h-13.15c-.26,3.73-.45,7.28-1.21,10.96-3.88,19.05-18.68,34.89-37.41,40.1-4.84,1.34-9.54,1.88-14.55,2.1v13.15c20.56.23,40.57-9.89,52.87-26.17M371.59,544.81c-1.36-.83-3.51-.3-5.17-.42-14.91-1.04-29.2-6.24-41.36-14.78-11.96,8.64-26.41,13.75-41.18,14.78-1.66.12-3.81-.41-5.17.42v12.59c.51.62,1.62.47,2.39.43,15.44-.81,30.52-4.59,43.94-12.32,3.42,1.49,6.72,3.41,10.2,4.89,10.83,4.58,22.23,6.81,33.97,7.43.57.03,2.21.15,2.39-.43v-12.59ZM318.42,464.93h-13.15c.22,14.53-12.04,26.77-26.58,26.58v13.15c21.5.67,40.44-18.2,39.73-39.73M344.3,510.53l-8.53,10.21c10.54,6.88,23.17,10.6,35.82,10.5v-13.15c-9.65-.19-18.98-2.67-27.29-7.56M292.13,465.62l-.43-.7h-12.59l-.42.42v13.01c7.2-.12,12.9-5.58,13.44-12.73M371.59,465.34l-.42-.42h-12.59c-.79,0,0,3.24.16,3.76,1.06,3.8,4.46,7.6,8.23,8.84.82.27,3.23.86,3.96.81.27-.02.6-.18.67-.4v-12.59ZM238.66,505.07c3.6-4.77,6.26-9.85,8.82-15.23,7.46,9.3,19.15,15.21,31.2,14.82v-13.15c-14.54.19-26.8-12.05-26.58-26.58h-13.15c-.26,3.73-.45,7.28-1.21,10.96-3.88,19.05-18.68,34.89-37.41,40.1-4.84,1.34-9.54,1.88-14.55,2.1v13.15c20.56.23,40.57-9.89,52.87-26.17M278.69,544.81c-1.36-.83-3.51-.3-5.17-.42-14.91-1.04-29.2-6.24-41.36-14.78-11.96,8.64-26.41,13.75-41.18,14.78-1.66.12-3.81-.41-5.17.42v12.59c.51.62,1.62.47,2.39.43,15.44-.81,30.52-4.59,43.94-12.32,3.42,1.49,6.72,3.41,10.2,4.89,10.83,4.58,22.23,6.81,33.97,7.43.57.03,2.21.15,2.39-.43v-12.59ZM225.53,464.93h-13.15c.22,14.53-12.04,26.77-26.58,26.58v13.15c21.5.67,40.44-18.2,39.73-39.73M251.4,510.53l-8.53,10.21c10.54,6.88,23.17,10.6,35.82,10.5v-13.15c-9.65-.19-18.98-2.67-27.29-7.56M199.23,465.62l-.43-.7h-12.59l-.42.42v13.01c7.2-.12,12.9-5.58,13.44-12.73M278.69,465.34l-.42-.42h-12.59c-.79,0,0,3.24.16,3.76,1.06,3.8,4.46,7.6,8.23,8.84.82.27,3.23.86,3.96.81.27-.02.6-.18.67-.4v-12.59ZM145.77,505.07c3.6-4.77,6.26-9.85,8.82-15.23,7.46,9.3,19.15,15.21,31.2,14.82v-13.15c-14.54.19-26.8-12.05-26.58-26.58h-13.15c-.26,3.73-.45,7.28-1.21,10.96-3.88,19.05-18.68,34.89-37.41,40.1-4.84,1.34-9.54,1.88-14.55,2.1v13.15c20.56.23,40.57-9.89,52.87-26.17M185.79,544.81c-1.36-.83-3.51-.3-5.17-.42-14.91-1.04-29.2-6.24-41.36-14.78-11.96,8.64-26.41,13.75-41.18,14.78-1.66.12-3.81-.41-5.17.42v12.59c.51.62,1.62.47,2.39.43,15.44-.81,30.52-4.59,43.94-12.32,3.42,1.49,6.72,3.41,10.2,4.89,10.83,4.58,22.23,6.81,33.97,7.43.57.03,2.21.15,2.39-.43v-12.59ZM132.63,464.93h-13.15c.22,14.53-12.04,26.77-26.58,26.58v13.15c21.5.67,40.44-18.2,39.73-39.73M158.51,510.53l-8.53,10.21c10.54,6.88,23.17,10.6,35.82,10.5v-13.15c-9.65-.19-18.98-2.67-27.29-7.56M106.33,465.62l-.43-.7h-12.59l-.42.42v13.01c7.2-.12,12.9-5.58,13.44-12.73M185.79,465.34l-.42-.42h-12.59c-.79,0,0,3.24.16,3.76,1.06,3.8,4.46,7.6,8.23,8.84.82.27,3.23.86,3.96.81.27-.02.6-.18.67-.4v-12.59ZM52.87,505.07c3.6-4.77,6.26-9.85,8.82-15.23,7.46,9.3,19.15,15.21,31.2,14.82v-13.15c-14.54.19-26.8-12.05-26.58-26.58h-13.15c-.26,3.73-.45,7.28-1.21,10.96-3.88,19.05-18.68,34.89-37.41,40.1-4.84,1.34-9.54,1.88-14.55,2.1v13.15c20.57.23,40.57-9.89,52.87-26.17M92.9,544.81c-1.36-.83-3.51-.3-5.17-.42-14.91-1.04-29.2-6.24-41.36-14.78-11.96,8.64-26.41,13.75-41.18,14.78-1.66.12-3.81-.41-5.17.42v12.59c.51.62,1.62.47,2.39.43,15.44-.81,30.52-4.59,43.94-12.32,3.42,1.49,6.72,3.41,10.2,4.89,10.83,4.58,22.23,6.81,33.98,7.43.57.03,2.21.15,2.39-.43v-12.59ZM39.73,464.93h-13.15c.22,14.53-12.04,26.77-26.58,26.58v13.15c21.5.67,40.44-18.2,39.73-39.73M65.61,510.53l-8.53,10.21c10.54,6.88,23.17,10.6,35.82,10.5v-13.15c-9.65-.19-18.98-2.67-27.29-7.56M13.44,465.62l-.43-.7H.42l-.42.42v13.01c7.2-.12,12.9-5.58,13.44-12.73M92.9,465.34l-.42-.42h-12.59c-.79,0,0,3.24.16,3.76,1.06,3.8,4.46,7.6,8.23,8.84.81.27,3.23.86,3.96.81.27-.02.6-.18.67-.4v-12.59ZM411.61,424.97c-3.61,4.77-6.26,9.85-8.83,15.23-7.46-9.3-19.15-15.21-31.2-14.82v13.15c14.54-.19,26.8,12.05,26.58,26.58h13.15c.26-3.73.46-7.28,1.21-10.96,3.89-19.04,18.68-34.89,37.41-40.1,4.84-1.35,9.54-1.88,14.55-2.1v-13.15c-20.57-.23-40.57,9.89-52.87,26.17M371.59,385.23c1.36.83,3.51.31,5.17.42,14.92,1.05,29.2,6.24,41.36,14.78,11.96-8.64,26.41-13.75,41.19-14.78,1.66-.12,3.81.41,5.17-.42v-12.59c-.51-.62-1.62-.47-2.39-.43-15.44.81-30.52,4.59-43.94,12.32-3.42-1.49-6.72-3.41-10.2-4.89-10.83-4.58-22.23-6.81-33.98-7.43-.57-.03-2.21-.15-2.39.43v12.59ZM424.75,465.11h13.15c-.22-14.53,12.04-26.77,26.58-26.58v-13.15c-21.5-.67-40.44,18.2-39.73,39.73M398.87,419.51l8.53-10.21c-10.54-6.89-23.17-10.6-35.82-10.5v13.15c9.65.19,18.98,2.67,27.29,7.56M451.04,464.42l.43.7h12.59l.42-.42v-13.01c-7.2.12-12.91,5.58-13.44,12.73M371.59,464.69l.42.42h12.59c.79,0,0-3.24-.16-3.76-1.06-3.8-4.45-7.6-8.23-8.84-.81-.27-3.23-.86-3.96-.81-.27.02-.6.18-.67.41v12.59ZM504.51,424.97c-3.61,4.77-6.26,9.85-8.83,15.23-7.46-9.3-19.15-15.21-31.2-14.82v13.15c14.54-.19,26.8,12.05,26.58,26.58h13.15c.26-3.73.46-7.28,1.21-10.96,3.89-19.04,18.68-34.89,37.41-40.1,4.84-1.35,9.54-1.88,14.55-2.1v-13.15c-20.57-.23-40.57,9.89-52.87,26.17M464.48,385.23c1.36.83,3.51.31,5.17.42,14.92,1.05,29.2,6.24,41.36,14.78,11.96-8.64,26.41-13.75,41.19-14.78,1.66-.12,3.81.41,5.17-.42v-12.59c-.51-.62-1.62-.47-2.39-.43-15.44.81-30.52,4.59-43.94,12.32-3.42-1.49-6.72-3.41-10.2-4.89-10.83-4.58-22.23-6.81-33.98-7.43-.57-.03-2.21-.15-2.39.43v12.59ZM517.64,465.11h13.15c-.22-14.53,12.04-26.77,26.58-26.58v-13.15c-21.5-.67-40.44,18.2-39.73,39.73M491.77,419.51l8.53-10.21c-10.54-6.89-23.17-10.6-35.82-10.5v13.15c9.65.19,18.98,2.67,27.29,7.56M543.94,464.42l.43.7h12.59l.42-.42v-13.01c-7.2.12-12.91,5.58-13.44,12.73M464.48,464.69l.42.42h12.59c.79,0,0-3.24-.16-3.76-1.06-3.8-4.45-7.6-8.23-8.84-.81-.27-3.23-.86-3.96-.81-.27.02-.6.18-.67.41v12.59ZM597.4,424.97c-3.61,4.77-6.26,9.85-8.83,15.23-7.46-9.3-19.15-15.21-31.2-14.82v13.15c14.54-.19,26.8,12.05,26.58,26.58h13.15c.26-3.73.46-7.28,1.21-10.96,3.88-19.04,18.68-34.89,37.41-40.1,4.84-1.35,9.53-1.88,14.55-2.1v-13.15c-20.57-.23-40.57,9.89-52.87,26.17M557.38,385.23c1.36.83,3.51.31,5.17.42,14.92,1.05,29.2,6.24,41.36,14.78,11.96-8.64,26.41-13.75,41.19-14.78,1.66-.12,3.81.41,5.17-.42v-12.59c-.51-.62-1.62-.47-2.39-.43-15.44.81-30.52,4.59-43.94,12.32-3.42-1.49-6.72-3.41-10.2-4.89-10.83-4.58-22.23-6.81-33.98-7.43-.57-.03-2.21-.15-2.39.43v12.59ZM610.54,465.11h13.15c-.22-14.53,12.04-26.77,26.58-26.58v-13.15c-21.5-.67-40.44,18.2-39.73,39.73M584.66,419.51l8.53-10.21c-10.54-6.89-23.17-10.6-35.82-10.5v13.15c9.65.19,18.98,2.67,27.29,7.56M636.83,464.42l.43.7h12.59l.42-.42v-13.01c-7.2.12-12.91,5.58-13.44,12.73M557.38,464.69l.42.42h12.59c.79,0,0-3.24-.16-3.76-1.06-3.8-4.46-7.6-8.23-8.84-.82-.27-3.23-.86-3.96-.81-.27.02-.6.18-.67.41v12.59ZM610.25,505.07c3.61-4.77,6.26-9.85,8.83-15.23,7.46,9.3,19.15,15.21,31.2,14.82v-13.15c-14.54.19-26.8-12.05-26.58-26.58h-13.15c-.26,3.73-.46,7.28-1.21,10.96-3.88,19.05-18.68,34.89-37.41,40.1-4.84,1.34-9.54,1.88-14.55,2.1v13.15c20.56.23,40.57-9.89,52.87-26.17M650.27,544.81c-1.36-.83-3.51-.3-5.17-.42-14.92-1.04-29.2-6.24-41.36-14.78-11.96,8.64-26.41,13.75-41.19,14.78-1.66.12-3.81-.41-5.17.42v12.59c.51.62,1.62.47,2.39.43,15.44-.81,30.52-4.59,43.94-12.32,3.42,1.49,6.72,3.41,10.2,4.89,10.83,4.58,22.23,6.81,33.97,7.43.57.03,2.21.15,2.39-.43v-12.59ZM597.11,464.93h-13.15c.22,14.53-12.04,26.77-26.58,26.58v13.15c21.5.67,40.44-18.2,39.73-39.73M622.99,510.53l-8.53,10.21c10.54,6.88,23.17,10.6,35.82,10.5v-13.15c-9.65-.19-18.98-2.67-27.29-7.56M570.82,465.62l-.43-.7h-12.59l-.42.42v13.01c7.2-.12,12.9-5.58,13.44-12.73M650.27,465.34l-.42-.42h-12.59c-.79,0,0,3.24.16,3.76,1.06,3.8,4.46,7.6,8.23,8.84.82.27,3.23.86,3.96.81.27-.02.6-.18.67-.4v-12.59ZM517.35,505.07c3.6-4.77,6.26-9.85,8.82-15.23,7.46,9.3,19.15,15.21,31.2,14.82v-13.15c-14.54.19-26.8-12.05-26.58-26.58h-13.15c-.26,3.73-.45,7.28-1.21,10.96-3.88,19.05-18.68,34.89-37.41,40.1-4.84,1.34-9.54,1.88-14.55,2.1v13.15c20.56.23,40.57-9.89,52.87-26.17M557.38,544.81c-1.36-.83-3.51-.3-5.17-.42-14.91-1.04-29.2-6.24-41.36-14.78-11.96,8.64-26.41,13.75-41.19,14.78-1.66.12-3.81-.41-5.17.42v12.59c.51.62,1.62.47,2.39.43,15.44-.81,30.52-4.59,43.94-12.32,3.42,1.49,6.72,3.41,10.2,4.89,10.83,4.58,22.23,6.81,33.97,7.43.57.03,2.21.15,2.39-.43v-12.59ZM504.21,464.93h-13.15c.22,14.53-12.04,26.77-26.58,26.58v13.15c21.5.67,40.44-18.2,39.73-39.73M530.09,510.53l-8.53,10.21c10.54,6.88,23.17,10.6,35.82,10.5v-13.15c-9.65-.19-18.98-2.67-27.29-7.56M477.92,465.62l-.43-.7h-12.59l-.42.42v13.01c7.2-.12,12.9-5.58,13.44-12.73M557.38,465.34l-.42-.42h-12.59c-.79,0,0,3.24.16,3.76,1.06,3.8,4.46,7.6,8.23,8.84.82.27,3.23.86,3.96.81.27-.02.6-.18.67-.4v-12.59ZM424.46,505.07c3.6-4.77,6.26-9.85,8.82-15.23,7.46,9.3,19.15,15.21,31.2,14.82v-13.15c-14.54.19-26.8-12.05-26.58-26.58h-13.15c-.26,3.73-.45,7.28-1.21,10.96-3.88,19.05-18.68,34.89-37.41,40.1-4.84,1.34-9.53,1.88-14.55,2.1v13.15c20.56.23,40.57-9.89,52.87-26.17M464.48,544.81c-1.36-.83-3.51-.3-5.17-.42-14.91-1.04-29.2-6.24-41.36-14.78-11.96,8.64-26.41,13.75-41.19,14.78-1.66.12-3.81-.41-5.17.42v12.59c.51.62,1.62.47,2.39.43,15.44-.81,30.52-4.59,43.94-12.32,3.42,1.49,6.72,3.41,10.2,4.89,10.83,4.58,22.23,6.81,33.97,7.43.57.03,2.21.15,2.39-.43v-12.59ZM411.32,464.93h-13.15c.22,14.53-12.04,26.77-26.58,26.58v13.15c21.5.67,40.44-18.2,39.73-39.73M437.19,510.53l-8.53,10.21c10.54,6.88,23.17,10.6,35.82,10.5v-13.15c-9.65-.19-18.98-2.67-27.29-7.56M385.02,465.62l-.43-.7h-12.59l-.42.42v13.01c7.2-.12,12.9-5.58,13.44-12.73M464.48,465.34l-.42-.42h-12.59c-.79,0,0,3.24.16,3.76,1.06,3.8,4.46,7.6,8.23,8.84.82.27,3.23.86,3.96.81.27-.02.6-.18.67-.4v-12.59Z"/>
    </clipPath>
    <linearGradient id="linear-gradient-3" y1="2030.64" y2="2030.64" gradientTransform="translate(-1097607.66 685970.61) scale(337.58 -337.58)" xlink:href="#linear-gradient"/>
  </defs>
  <g id="Layer_1-2" data-name="Layer 1">
    <g>
      <g class="cls-10">
        <g class="cls-5">
          <rect class="cls-9" x="0" y="-.14" width="650.27" height="186.01"/>
        </g>
      </g>
      <g class="cls-8">
        <g class="cls-7">
          <rect class="cls-2" x="0" y="185.94" width="650.27" height="186.01"/>
        </g>
      </g>
      <g class="cls-1">
        <g class="cls-6">
          <rect class="cls-4" x="0" y="372.01" width="650.27" height="186.01"/>
        </g>
      </g>
    </g>
  </g>
</svg>