<?xml version="1.0" encoding="UTF-8"?>
<svg id="Layer_2" data-name="Layer 2" xmlns="http://www.w3.org/2000/svg" xmlns:xlink="http://www.w3.org/1999/xlink" viewBox="0 0 2080.38 259.93">
  <defs>
    <style>
      .cls-1 {
        fill: none;
      }

      .cls-2 {
        clip-path: url(#clippath-1);
      }

      .cls-3 {
        fill: url(#linear-gradient);
      }

      .cls-4 {
        clip-path: url(#clippath);
      }
    </style>
    <clipPath id="clippath">
      <rect class="cls-1" x="0" width="2080.38" height="259.93"/>
    </clipPath>
    <clipPath id="clippath-1">
      <path class="cls-1" d="M130.02,37.28v18.41c-7.02.31-13.59,1.05-20.36,2.94-26.21,7.29-46.92,29.47-52.36,56.13-1.05,5.16-1.33,10.12-1.69,15.35h-18.41C37.51,109.75,20.35,92.63,0,92.89v-18.41c16.86-.54,33.22,7.74,43.67,20.75,3.59-7.54,7.31-14.64,12.35-21.32,17.22-22.8,45.22-36.96,74-36.64M0,18.28c1.91,1.16,4.91.43,7.24.59,20.87,1.46,40.87,8.73,57.9,20.69,16.74-12.09,36.97-19.24,57.64-20.69,2.33-.16,5.34.57,7.24-.59V.66c-.72-.87-2.27-.66-3.35-.6-21.61,1.14-42.72,6.42-61.5,17.24-4.79-2.08-9.4-4.78-14.28-6.84C35.75,4.05,19.79.92,3.35.06,2.55.01.25-.16,0,.66v17.63ZM74.41,130.09h18.41c-.3-20.34,16.85-37.47,37.2-37.21v-18.41c-30.1-.94-56.6,25.47-55.61,55.61M38.19,66.26l11.94-14.29C35.37,42.33,17.7,37.13,0,37.28v18.41c13.51.27,26.57,3.74,38.19,10.58M111.21,129.12l.6.97h17.62l.59-.59v-18.21c-10.07.17-18.06,7.81-18.81,17.83M0,129.51l.59.59h17.62c1.11,0-.01-4.53-.22-5.27-1.49-5.32-6.24-10.63-11.52-12.37-1.14-.38-4.52-1.21-5.54-1.14-.37.02-.85.25-.94.57v17.63ZM186.04,73.91c-5.05,6.68-8.76,13.78-12.35,21.32-10.44-13.01-26.81-21.29-43.67-20.75v18.41c20.35-.26,37.51,16.86,37.21,37.21h18.41c.36-5.22.64-10.18,1.69-15.35,5.44-26.66,26.14-48.84,52.36-56.13,6.78-1.88,13.35-2.63,20.36-2.94v-18.41c-28.78-.32-56.79,13.84-74,36.64M130.02,18.28c1.91,1.16,4.91.43,7.24.59,20.87,1.46,40.87,8.73,57.9,20.69,16.74-12.09,36.97-19.24,57.64-20.69,2.33-.16,5.34.57,7.24-.59V.66c-.72-.87-2.27-.66-3.35-.6-21.61,1.14-42.72,6.42-61.5,17.24-4.79-2.08-9.4-4.78-14.28-6.84C165.77,4.05,149.81.92,133.37.06c-.79-.04-3.1-.21-3.35.6v17.63ZM204.43,130.09h18.41c-.3-20.34,16.85-37.47,37.2-37.21v-18.41c-30.1-.94-56.6,25.47-55.61,55.61M168.21,66.26l11.94-14.29c-14.76-9.64-32.43-14.83-50.13-14.69v18.41c13.51.27,26.57,3.74,38.19,10.58M241.24,129.12l.6.97h17.62l.59-.59v-18.21c-10.07.17-18.06,7.81-18.81,17.83M130.02,129.51l.59.59h17.62c1.11,0-.01-4.53-.22-5.27-1.49-5.32-6.24-10.63-11.52-12.37-1.14-.38-4.52-1.21-5.54-1.14-.37.02-.85.25-.94.57v17.63ZM316.07,73.91c-5.05,6.68-8.76,13.78-12.35,21.32-10.44-13.01-26.81-21.29-43.67-20.75v18.41c20.35-.26,37.51,16.86,37.21,37.21h18.41c.36-5.22.64-10.18,1.69-15.35,5.44-26.66,26.14-48.84,52.36-56.13,6.78-1.88,13.35-2.63,20.36-2.94v-18.41c-28.78-.32-56.79,13.84-74,36.64M260.05,18.28c1.91,1.16,4.91.43,7.24.59,20.87,1.46,40.87,8.73,57.9,20.69,16.74-12.09,36.97-19.24,57.64-20.69,2.33-.16,5.34.57,7.24-.59V.66c-.72-.87-2.27-.66-3.35-.6-21.61,1.14-42.72,6.42-61.5,17.24-4.79-2.08-9.4-4.78-14.28-6.84-15.15-6.41-31.11-9.54-47.55-10.41-.79-.04-3.1-.21-3.35.6v17.63ZM334.46,130.09h18.41c-.3-20.34,16.85-37.47,37.2-37.21v-18.41c-30.1-.94-56.6,25.47-55.61,55.61M298.24,66.26l11.94-14.29c-14.76-9.64-32.43-14.83-50.13-14.69v18.41c13.51.27,26.57,3.74,38.19,10.58M371.26,129.12l.6.97h17.62l.59-.59v-18.21c-10.07.17-18.06,7.81-18.81,17.83M260.05,129.51l.59.59h17.62c1.11,0-.01-4.53-.22-5.27-1.49-5.32-6.24-10.63-11.52-12.37-1.14-.38-4.52-1.21-5.54-1.14-.37.02-.85.25-.94.57v17.63ZM446.09,73.91c-5.05,6.68-8.76,13.78-12.35,21.32-10.44-13.01-26.81-21.29-43.67-20.75v18.41c20.35-.26,37.51,16.86,37.21,37.21h18.41c.36-5.22.64-10.18,1.69-15.35,5.44-26.66,26.14-48.84,52.36-56.13,6.78-1.88,13.35-2.63,20.36-2.94v-18.41c-28.78-.32-56.79,13.84-74,36.64M390.07,18.28c1.91,1.16,4.91.43,7.24.59,20.87,1.46,40.87,8.73,57.9,20.69,16.74-12.09,36.97-19.24,57.64-20.69,2.33-.16,5.34.57,7.24-.59V.66c-.72-.87-2.27-.66-3.35-.6-21.61,1.14-42.72,6.42-61.5,17.24-4.79-2.08-9.4-4.78-14.28-6.84-15.15-6.41-31.11-9.54-47.55-10.41-.79-.04-3.1-.21-3.35.6v17.63ZM464.48,130.09h18.41c-.3-20.34,16.85-37.47,37.2-37.21v-18.41c-30.1-.94-56.6,25.47-55.61,55.61M428.26,66.26l11.94-14.29c-14.76-9.64-32.43-14.83-50.13-14.69v18.41c13.51.27,26.57,3.74,38.19,10.58M501.28,129.12l.6.97h17.62l.59-.59v-18.21c-10.07.17-18.06,7.81-18.81,17.83M390.07,129.51l.59.59h17.62c1.11,0-.01-4.53-.22-5.27-1.49-5.32-6.24-10.63-11.52-12.37-1.14-.38-4.52-1.21-5.54-1.14-.37.02-.85.25-.94.57v17.63ZM464.07,186.01c5.04-6.68,8.76-13.78,12.35-21.32,10.44,13.01,26.81,21.29,43.67,20.75v-18.41c-20.35.26-37.51-16.86-37.2-37.21h-18.41c-.36,5.22-.64,10.18-1.69,15.35-5.44,26.66-26.14,48.84-52.36,56.13-6.77,1.88-13.35,2.63-20.36,2.94v18.41c28.79.32,56.79-13.84,74-36.64M520.09,241.64c-1.91-1.16-4.91-.43-7.24-.59-20.87-1.46-40.87-8.73-57.9-20.69-16.75,12.09-36.97,19.24-57.64,20.69-2.33.16-5.34-.57-7.24.59v17.62c.72.87,2.27.66,3.35.6,21.61-1.14,42.72-6.42,61.49-17.25,4.79,2.08,9.41,4.78,14.28,6.84,15.15,6.41,31.11,9.54,47.55,10.41.79.04,3.1.21,3.35-.6v-17.62ZM445.68,129.83h-18.41c.3,20.34-16.85,37.47-37.21,37.21v18.41c30.1.94,56.6-25.47,55.61-55.61M481.9,193.66l-11.94,14.29c14.76,9.64,32.43,14.83,50.13,14.69v-18.41c-13.51-.27-26.57-3.74-38.19-10.58M408.88,130.81l-.6-.97h-17.62l-.59.59v18.21c10.07-.16,18.06-7.81,18.81-17.82M520.09,130.42l-.59-.59h-17.62c-1.1,0,.01,4.53.22,5.27,1.49,5.32,6.24,10.63,11.52,12.37,1.14.38,4.52,1.21,5.54,1.14.37-.03.85-.25.94-.57v-17.63ZM334.05,186.01c5.04-6.68,8.76-13.78,12.35-21.32,10.44,13.01,26.81,21.29,43.67,20.75v-18.41c-20.35.26-37.51-16.86-37.2-37.21h-18.41c-.36,5.22-.64,10.18-1.69,15.35-5.44,26.66-26.14,48.84-52.36,56.13-6.77,1.88-13.35,2.63-20.36,2.94v18.41c28.79.32,56.79-13.84,74-36.64M390.07,241.64c-1.91-1.16-4.91-.43-7.24-.59-20.87-1.46-40.87-8.73-57.9-20.69-16.75,12.09-36.97,19.24-57.64,20.69-2.33.16-5.34-.57-7.24.59v17.62c.72.87,2.27.66,3.35.6,21.61-1.14,42.72-6.42,61.49-17.25,4.79,2.08,9.41,4.78,14.28,6.84,15.15,6.41,31.11,9.54,47.55,10.41.79.04,3.1.21,3.35-.6v-17.62ZM315.66,129.83h-18.41c.3,20.34-16.85,37.47-37.21,37.21v18.41c30.1.94,56.6-25.47,55.61-55.61M351.88,193.66l-11.94,14.29c14.76,9.64,32.43,14.83,50.13,14.69v-18.41c-13.51-.27-26.57-3.74-38.19-10.58M278.86,130.81l-.6-.97h-17.62l-.59.59v18.21c10.07-.16,18.06-7.81,18.81-17.82M390.07,130.42l-.59-.59h-17.62c-1.1,0,.01,4.53.22,5.27,1.49,5.32,6.24,10.63,11.52,12.37,1.14.38,4.52,1.21,5.54,1.14.37-.03.85-.25.94-.57v-17.63ZM204.03,186.01c5.04-6.68,8.76-13.78,12.35-21.32,10.44,13.01,26.81,21.29,43.67,20.75v-18.41c-20.35.26-37.51-16.86-37.2-37.21h-18.41c-.36,5.22-.64,10.18-1.69,15.35-5.44,26.66-26.14,48.84-52.36,56.13-6.77,1.88-13.35,2.63-20.36,2.94v18.41c28.79.32,56.79-13.84,74-36.64M260.05,241.64c-1.91-1.16-4.91-.43-7.24-.59-20.87-1.46-40.87-8.73-57.9-20.69-16.75,12.09-36.97,19.24-57.64,20.69-2.33.16-5.34-.57-7.24.59v17.62c.72.87,2.27.66,3.35.6,21.61-1.14,42.72-6.42,61.49-17.25,4.79,2.08,9.41,4.78,14.28,6.84,15.15,6.41,31.11,9.54,47.55,10.41.79.04,3.1.21,3.35-.6v-17.62ZM185.64,129.83h-18.41c.3,20.34-16.85,37.47-37.21,37.21v18.41c30.1.94,56.6-25.47,55.61-55.61M221.86,193.66l-11.94,14.29c14.76,9.64,32.43,14.83,50.13,14.69v-18.41c-13.51-.27-26.57-3.74-38.19-10.58M148.83,130.81l-.6-.97h-17.62l-.59.59v18.21c10.07-.16,18.06-7.81,18.81-17.82M260.05,130.42l-.59-.59h-17.62c-1.1,0,.01,4.53.22,5.27,1.49,5.32,6.24,10.63,11.52,12.37,1.14.38,4.52,1.21,5.54,1.14.37-.03.85-.25.94-.57v-17.63ZM74,186.01c5.04-6.68,8.76-13.78,12.35-21.32,10.44,13.01,26.81,21.29,43.67,20.75v-18.41c-20.35.26-37.51-16.86-37.2-37.21h-18.41c-.36,5.22-.64,10.18-1.69,15.35-5.44,26.66-26.14,48.84-52.36,56.13-6.77,1.88-13.35,2.63-20.36,2.94v18.41c28.79.32,56.79-13.84,74-36.64M130.02,241.64c-1.91-1.16-4.91-.43-7.24-.59-20.87-1.46-40.87-8.73-57.9-20.69-16.75,12.09-36.97,19.24-57.64,20.69-2.33.16-5.34-.57-7.24.59v17.62c.72.87,2.27.66,3.35.6,21.61-1.14,42.72-6.42,61.49-17.25,4.79,2.08,9.41,4.78,14.28,6.84,15.15,6.41,31.11,9.54,47.55,10.41.79.04,3.1.21,3.35-.6v-17.62ZM55.61,129.83h-18.41C37.51,150.17,20.35,167.3,0,167.04v18.41c30.1.94,56.6-25.47,55.61-55.61M91.83,193.66l-11.94,14.29c14.76,9.64,32.43,14.83,50.13,14.69v-18.41c-13.51-.27-26.57-3.74-38.19-10.58M18.81,130.81l-.6-.97H.59L0,130.42v18.21c10.07-.16,18.06-7.81,18.81-17.82M130.02,130.42l-.59-.59h-17.62c-1.1,0,.01,4.53.22,5.27,1.49,5.32,6.24,10.63,11.52,12.37,1.14.38,4.52,1.21,5.54,1.14.37-.03.85-.25.94-.57v-17.63ZM576.11,73.91c-5.05,6.68-8.76,13.78-12.35,21.32-10.44-13.01-26.81-21.29-43.67-20.75v18.41c20.35-.26,37.51,16.86,37.21,37.21h18.41c.36-5.22.64-10.18,1.69-15.35,5.44-26.66,26.14-48.84,52.36-56.13,6.78-1.88,13.35-2.63,20.36-2.94v-18.41c-28.78-.32-56.79,13.84-74,36.64M520.09,18.28c1.91,1.16,4.91.43,7.24.59,20.87,1.46,40.87,8.73,57.9,20.69,16.74-12.09,36.97-19.24,57.64-20.69,2.33-.16,5.34.57,7.24-.59V.66c-.72-.87-2.27-.66-3.35-.6-21.61,1.14-42.72,6.42-61.5,17.24-4.79-2.08-9.4-4.78-14.28-6.84-15.15-6.41-31.11-9.54-47.55-10.41-.79-.04-3.1-.21-3.35.6v17.63ZM594.5,130.09h18.41c-.3-20.34,16.85-37.47,37.2-37.21v-18.41c-30.1-.94-56.6,25.47-55.61,55.61M558.28,66.26l11.94-14.29c-14.76-9.64-32.43-14.83-50.13-14.69v18.41c13.51.27,26.57,3.74,38.19,10.58M631.31,129.12l.6.97h17.62l.59-.59v-18.21c-10.07.17-18.06,7.81-18.81,17.83M520.09,129.51l.59.59h17.62c1.11,0-.01-4.53-.22-5.27-1.49-5.32-6.24-10.63-11.52-12.37-1.14-.38-4.52-1.21-5.54-1.14-.37.02-.85.25-.94.57v17.63ZM706.14,73.91c-5.05,6.68-8.76,13.78-12.35,21.32-10.44-13.01-26.81-21.29-43.67-20.75v18.41c20.35-.26,37.51,16.86,37.21,37.21h18.41c.36-5.22.64-10.18,1.69-15.35,5.44-26.66,26.14-48.84,52.36-56.13,6.78-1.88,13.35-2.63,20.36-2.94v-18.41c-28.78-.32-56.79,13.84-74,36.64M650.12,18.28c1.91,1.16,4.91.43,7.24.59,20.87,1.46,40.87,8.73,57.9,20.69,16.74-12.09,36.97-19.24,57.64-20.69,2.33-.16,5.34.57,7.24-.59V.66c-.72-.87-2.27-.66-3.35-.6-21.61,1.14-42.72,6.42-61.5,17.24-4.79-2.08-9.4-4.78-14.28-6.84-15.15-6.41-31.11-9.54-47.55-10.41-.79-.04-3.1-.21-3.35.6v17.63ZM724.53,130.09h18.41c-.3-20.34,16.85-37.47,37.2-37.21v-18.41c-30.1-.94-56.6,25.47-55.61,55.61M688.31,66.26l11.94-14.29c-14.76-9.64-32.43-14.83-50.13-14.69v18.41c13.51.27,26.57,3.74,38.19,10.58M761.33,129.12l.6.97h17.62l.59-.59v-18.21c-10.07.17-18.06,7.81-18.81,17.83M650.12,129.51l.59.59h17.62c1.11,0-.01-4.53-.22-5.27-1.49-5.32-6.24-10.63-11.52-12.37-1.14-.38-4.52-1.21-5.54-1.14-.37.02-.85.25-.94.57v17.63ZM836.16,73.91c-5.05,6.68-8.76,13.78-12.35,21.32-10.44-13.01-26.81-21.29-43.67-20.75v18.41c20.35-.26,37.51,16.86,37.21,37.21h18.41c.36-5.22.64-10.18,1.69-15.35,5.44-26.66,26.14-48.84,52.36-56.13,6.78-1.88,13.35-2.63,20.36-2.94v-18.41c-28.78-.32-56.79,13.84-74,36.64M780.14,18.28c1.91,1.16,4.91.43,7.24.59,20.87,1.46,40.87,8.73,57.9,20.69,16.74-12.09,36.97-19.24,57.64-20.69,2.33-.16,5.34.57,7.24-.59V.66c-.72-.87-2.27-.66-3.35-.6-21.61,1.14-42.72,6.42-61.5,17.24-4.79-2.08-9.4-4.78-14.28-6.84-15.15-6.41-31.11-9.54-47.55-10.41-.79-.04-3.1-.21-3.35.6v17.63ZM854.55,130.09h18.41c-.3-20.34,16.85-37.47,37.2-37.21v-18.41c-30.1-.94-56.6,25.47-55.61,55.61M818.33,66.26l11.94-14.29c-14.76-9.64-32.43-14.83-50.13-14.69v18.41c13.51.27,26.57,3.74,38.19,10.58M891.35,129.12l.6.97h17.62l.59-.59v-18.21c-10.07.17-18.06,7.81-18.81,17.83M780.14,129.51l.59.59h17.62c1.11,0-.01-4.53-.22-5.27-1.49-5.32-6.24-10.63-11.52-12.37-1.14-.38-4.52-1.21-5.54-1.14-.37.02-.85.25-.94.57v17.63ZM966.18,73.91c-5.05,6.68-8.76,13.78-12.35,21.32-10.44-13.01-26.81-21.29-43.67-20.75v18.41c20.35-.26,37.51,16.86,37.21,37.21h18.41c.36-5.22.64-10.18,1.69-15.35,5.44-26.66,26.14-48.84,52.36-56.13,6.78-1.88,13.35-2.63,20.36-2.94v-18.41c-28.78-.32-56.79,13.84-74,36.64M910.16,18.28c1.91,1.16,4.91.43,7.24.59,20.87,1.46,40.87,8.73,57.9,20.69,16.74-12.09,36.97-19.24,57.64-20.69,2.33-.16,5.34.57,7.24-.59V.66c-.72-.87-2.27-.66-3.35-.6-21.61,1.14-42.72,6.42-61.5,17.24-4.79-2.08-9.4-4.78-14.28-6.84-15.15-6.41-31.11-9.54-47.55-10.41-.79-.04-3.1-.21-3.35.6v17.63ZM984.57,130.09h18.41c-.3-20.34,16.85-37.47,37.2-37.21v-18.41c-30.1-.94-56.6,25.47-55.61,55.61M948.35,66.26l11.94-14.29c-14.76-9.64-32.43-14.83-50.13-14.69v18.41c13.51.27,26.57,3.74,38.19,10.58M1021.38,129.12l.6.97h17.62l.59-.59v-18.21c-10.07.17-18.06,7.81-18.81,17.83M910.16,129.51l.59.59h17.62c1.11,0-.01-4.53-.22-5.27-1.49-5.32-6.24-10.63-11.52-12.37-1.14-.38-4.52-1.21-5.54-1.14-.37.02-.85.25-.94.57v17.63ZM984.17,186.01c5.04-6.68,8.76-13.78,12.35-21.32,10.44,13.01,26.81,21.29,43.67,20.75v-18.41c-20.35.26-37.51-16.86-37.2-37.21h-18.41c-.36,5.22-.64,10.18-1.69,15.35-5.44,26.66-26.14,48.84-52.36,56.13-6.77,1.88-13.35,2.63-20.36,2.94v18.41c28.79.32,56.79-13.84,74-36.64M1040.19,241.64c-1.91-1.16-4.91-.43-7.24-.59-20.87-1.46-40.87-8.73-57.9-20.69-16.75,12.09-36.97,19.24-57.64,20.69-2.33.16-5.34-.57-7.24.59v17.62c.72.87,2.27.66,3.35.6,21.61-1.14,42.72-6.42,61.49-17.25,4.79,2.08,9.41,4.78,14.28,6.84,15.15,6.41,31.11,9.54,47.55,10.41.79.04,3.1.21,3.35-.6v-17.62ZM965.78,129.83h-18.41c.3,20.34-16.85,37.47-37.21,37.21v18.41c30.1.94,56.6-25.47,55.61-55.61M1002,193.66l-11.94,14.29c14.76,9.64,32.43,14.83,50.13,14.69v-18.41c-13.51-.27-26.57-3.74-38.19-10.58M928.97,130.81l-.6-.97h-17.62l-.59.59v18.21c10.07-.16,18.06-7.81,18.81-17.82M1040.19,130.42l-.59-.59h-17.62c-1.1,0,.01,4.53.22,5.27,1.49,5.32,6.24,10.63,11.52,12.37,1.14.38,4.52,1.21,5.54,1.14.37-.03.85-.25.94-.57v-17.63ZM854.14,186.01c5.04-6.68,8.76-13.78,12.35-21.32,10.44,13.01,26.81,21.29,43.67,20.75v-18.41c-20.35.26-37.51-16.86-37.2-37.21h-18.41c-.36,5.22-.64,10.18-1.69,15.35-5.44,26.66-26.14,48.84-52.36,56.13-6.77,1.88-13.35,2.63-20.36,2.94v18.41c28.79.32,56.79-13.84,74-36.64M910.16,241.64c-1.91-1.16-4.91-.43-7.24-.59-20.87-1.46-40.87-8.73-57.9-20.69-16.75,12.09-36.97,19.24-57.64,20.69-2.33.16-5.34-.57-7.24.59v17.62c.72.87,2.27.66,3.35.6,21.61-1.14,42.72-6.42,61.49-17.25,4.79,2.08,9.41,4.78,14.28,6.84,15.15,6.41,31.11,9.54,47.55,10.41.79.04,3.1.21,3.35-.6v-17.62ZM835.75,129.83h-18.41c.3,20.34-16.85,37.47-37.21,37.21v18.41c30.1.94,56.6-25.47,55.61-55.61M871.97,193.66l-11.94,14.29c14.76,9.64,32.43,14.83,50.13,14.69v-18.41c-13.51-.27-26.57-3.74-38.19-10.58M798.95,130.81l-.6-.97h-17.62l-.59.59v18.21c10.07-.16,18.06-7.81,18.81-17.82M910.16,130.42l-.59-.59h-17.62c-1.1,0,.01,4.53.22,5.27,1.49,5.32,6.24,10.63,11.52,12.37,1.14.38,4.52,1.21,5.54,1.14.37-.03.85-.25.94-.57v-17.63ZM724.12,186.01c5.04-6.68,8.76-13.78,12.35-21.32,10.44,13.01,26.81,21.29,43.67,20.75v-18.41c-20.35.26-37.51-16.86-37.2-37.21h-18.41c-.36,5.22-.64,10.18-1.69,15.35-5.44,26.66-26.14,48.84-52.36,56.13-6.77,1.88-13.35,2.63-20.36,2.94v18.41c28.79.32,56.79-13.84,74-36.64M780.14,241.64c-1.91-1.16-4.91-.43-7.24-.59-20.87-1.46-40.87-8.73-57.9-20.69-16.75,12.09-36.97,19.24-57.64,20.69-2.33.16-5.34-.57-7.24.59v17.62c.72.87,2.27.66,3.35.6,21.61-1.14,42.72-6.42,61.49-17.25,4.79,2.08,9.41,4.78,14.28,6.84,15.15,6.41,31.11,9.54,47.55,10.41.79.04,3.1.21,3.35-.6v-17.62ZM705.73,129.83h-18.41c.3,20.34-16.85,37.47-37.21,37.21v18.41c30.1.94,56.6-25.47,55.61-55.61M741.95,193.66l-11.94,14.29c14.76,9.64,32.43,14.83,50.13,14.69v-18.41c-13.51-.27-26.57-3.74-38.19-10.58M668.93,130.81l-.6-.97h-17.62l-.59.59v18.21c10.07-.16,18.06-7.81,18.81-17.82M780.14,130.42l-.59-.59h-17.62c-1.1,0,.01,4.53.22,5.27,1.49,5.32,6.24,10.63,11.52,12.37,1.14.38,4.52,1.21,5.54,1.14.37-.03.85-.25.94-.57v-17.63ZM594.1,186.01c5.04-6.68,8.76-13.78,12.35-21.32,10.44,13.01,26.81,21.29,43.67,20.75v-18.41c-20.35.26-37.51-16.86-37.2-37.21h-18.41c-.36,5.22-.64,10.18-1.69,15.35-5.44,26.66-26.14,48.84-52.36,56.13-6.77,1.88-13.35,2.63-20.36,2.94v18.41c28.79.32,56.79-13.84,74-36.64M650.12,241.64c-1.91-1.16-4.91-.43-7.24-.59-20.87-1.46-40.87-8.73-57.9-20.69-16.75,12.09-36.97,19.24-57.64,20.69-2.33.16-5.34-.57-7.24.59v17.62c.72.87,2.27.66,3.35.6,21.61-1.14,42.72-6.42,61.49-17.25,4.79,2.08,9.41,4.78,14.28,6.84,15.15,6.41,31.11,9.54,47.55,10.41.79.04,3.1.21,3.35-.6v-17.62ZM575.71,129.83h-18.41c.3,20.34-16.85,37.47-37.21,37.21v18.41c30.1.94,56.6-25.47,55.61-55.61M611.93,193.66l-11.94,14.29c14.76,9.64,32.43,14.83,50.13,14.69v-18.41c-13.51-.27-26.57-3.74-38.19-10.58M538.9,130.81l-.6-.97h-17.62l-.59.59v18.21c10.07-.16,18.06-7.81,18.81-17.82M650.12,130.42l-.59-.59h-17.62c-1.1,0,.01,4.53.22,5.27,1.49,5.32,6.24,10.63,11.52,12.37,1.14.38,4.52,1.21,5.54,1.14.37-.03.85-.25.94-.57v-17.63ZM1096.21,73.91c-5.05,6.68-8.76,13.78-12.35,21.32-10.44-13.01-26.81-21.29-43.67-20.75v18.41c20.35-.26,37.51,16.86,37.21,37.21h18.41c.36-5.22.64-10.18,1.69-15.35,5.44-26.66,26.14-48.84,52.36-56.13,6.78-1.88,13.35-2.63,20.36-2.94v-18.41c-28.78-.32-56.79,13.84-74,36.64M1040.19,18.28c1.91,1.16,4.91.43,7.24.59,20.87,1.46,40.87,8.73,57.9,20.69,16.74-12.09,36.97-19.24,57.64-20.69,2.33-.16,5.34.57,7.24-.59V.66c-.72-.87-2.27-.66-3.35-.6-21.61,1.14-42.72,6.42-61.5,17.24-4.79-2.08-9.4-4.78-14.28-6.84-15.15-6.41-31.11-9.54-47.55-10.41-.79-.04-3.1-.21-3.35.6v17.63ZM1114.6,130.09h18.41c-.3-20.34,16.85-37.47,37.2-37.21v-18.41c-30.1-.94-56.6,25.47-55.61,55.61M1078.38,66.26l11.94-14.29c-14.76-9.64-32.43-14.83-50.13-14.69v18.41c13.51.27,26.57,3.74,38.19,10.58M1151.4,129.12l.6.97h17.62l.59-.59v-18.21c-10.07.17-18.06,7.81-18.81,17.83M1040.19,129.51l.59.59h17.62c1.11,0-.01-4.53-.22-5.27-1.49-5.32-6.24-10.63-11.52-12.37-1.14-.38-4.52-1.21-5.54-1.14-.37.02-.85.25-.94.57v17.63ZM1226.23,73.91c-5.05,6.68-8.76,13.78-12.35,21.32-10.44-13.01-26.81-21.29-43.67-20.75v18.41c20.35-.26,37.51,16.86,37.21,37.21h18.41c.36-5.22.64-10.18,1.69-15.35,5.44-26.66,26.14-48.84,52.36-56.13,6.78-1.88,13.35-2.63,20.36-2.94v-18.41c-28.78-.32-56.79,13.84-74,36.64M1170.21,18.28c1.91,1.16,4.91.43,7.24.59,20.87,1.46,40.87,8.73,57.9,20.69,16.74-12.09,36.97-19.24,57.64-20.69,2.33-.16,5.34.57,7.24-.59V.66c-.72-.87-2.27-.66-3.35-.6-21.61,1.14-42.72,6.42-61.5,17.24-4.79-2.08-9.4-4.78-14.28-6.84-15.15-6.41-31.11-9.54-47.55-10.41-.79-.04-3.1-.21-3.35.6v17.63ZM1244.62,130.09h18.41c-.3-20.34,16.85-37.47,37.2-37.21v-18.41c-30.1-.94-56.6,25.47-55.61,55.61M1208.4,66.26l11.94-14.29c-14.76-9.64-32.43-14.83-50.13-14.69v18.41c13.51.27,26.57,3.74,38.19,10.58M1281.42,129.12l.6.97h17.62l.59-.59v-18.21c-10.07.17-18.06,7.81-18.81,17.83M1170.21,129.51l.59.59h17.62c1.11,0-.01-4.53-.22-5.27-1.49-5.32-6.24-10.63-11.52-12.37-1.14-.38-4.52-1.21-5.54-1.14-.37.02-.85.25-.94.57v17.63ZM1356.25,73.91c-5.05,6.68-8.76,13.78-12.35,21.32-10.44-13.01-26.81-21.29-43.67-20.75v18.41c20.35-.26,37.51,16.86,37.21,37.21h18.41c.36-5.22.64-10.18,1.69-15.35,5.44-26.66,26.14-48.84,52.36-56.13,6.78-1.88,13.35-2.63,20.36-2.94v-18.41c-28.78-.32-56.79,13.84-74,36.64M1300.23,18.28c1.91,1.16,4.91.43,7.24.59,20.87,1.46,40.87,8.73,57.9,20.69,16.74-12.09,36.97-19.24,57.64-20.69,2.33-.16,5.34.57,7.24-.59V.66c-.72-.87-2.27-.66-3.35-.6-21.61,1.14-42.72,6.42-61.5,17.24-4.79-2.08-9.4-4.78-14.28-6.84-15.15-6.41-31.11-9.54-47.55-10.41-.79-.04-3.1-.21-3.35.6v17.63ZM1374.64,130.09h18.41c-.3-20.34,16.85-37.47,37.2-37.21v-18.41c-30.1-.94-56.6,25.47-55.61,55.61M1338.42,66.26l11.94-14.29c-14.76-9.64-32.43-14.83-50.13-14.69v18.41c13.51.27,26.57,3.74,38.19,10.58M1411.45,129.12l.6.97h17.62l.59-.59v-18.21c-10.07.17-18.06,7.81-18.81,17.83M1300.23,129.51l.59.59h17.62c1.11,0-.01-4.53-.22-5.27-1.49-5.32-6.24-10.63-11.52-12.37-1.14-.38-4.52-1.21-5.54-1.14-.37.02-.85.25-.94.57v17.63ZM1486.28,73.91c-5.05,6.68-8.76,13.78-12.35,21.32-10.44-13.01-26.81-21.29-43.67-20.75v18.41c20.35-.26,37.51,16.86,37.21,37.21h18.41c.36-5.22.64-10.18,1.69-15.35,5.44-26.66,26.14-48.84,52.36-56.13,6.78-1.88,13.35-2.63,20.36-2.94v-18.41c-28.78-.32-56.79,13.84-74,36.64M1430.26,18.28c1.91,1.16,4.91.43,7.24.59,20.87,1.46,40.87,8.73,57.9,20.69,16.74-12.09,36.97-19.24,57.64-20.69,2.33-.16,5.34.57,7.24-.59V.66c-.72-.87-2.27-.66-3.35-.6-21.61,1.14-42.72,6.42-61.5,17.24-4.79-2.08-9.4-4.78-14.28-6.84-15.15-6.41-31.11-9.54-47.55-10.41-.79-.04-3.1-.21-3.35.6v17.63ZM1504.67,130.09h18.41c-.3-20.34,16.85-37.47,37.2-37.21v-18.41c-30.1-.94-56.6,25.47-55.61,55.61M1468.45,66.26l11.94-14.29c-14.76-9.64-32.43-14.83-50.13-14.69v18.41c13.51.27,26.57,3.74,38.19,10.58M1541.47,129.12l.6.97h17.62l.59-.59v-18.21c-10.07.17-18.06,7.81-18.81,17.83M1430.26,129.51l.59.59h17.62c1.11,0-.01-4.53-.22-5.27-1.49-5.32-6.24-10.63-11.52-12.37-1.14-.38-4.52-1.21-5.54-1.14-.37.02-.85.25-.94.57v17.63ZM1504.26,186.01c5.04-6.68,8.76-13.78,12.35-21.32,10.44,13.01,26.81,21.29,43.67,20.75v-18.41c-20.35.26-37.51-16.86-37.2-37.21h-18.41c-.36,5.22-.64,10.18-1.69,15.35-5.44,26.66-26.14,48.84-52.36,56.13-6.77,1.88-13.35,2.63-20.36,2.94v18.41c28.79.32,56.79-13.84,74-36.64M1560.28,241.64c-1.91-1.16-4.91-.43-7.24-.59-20.87-1.46-40.87-8.73-57.9-20.69-16.75,12.09-36.97,19.24-57.64,20.69-2.33.16-5.34-.57-7.24.59v17.62c.72.87,2.27.66,3.35.6,21.61-1.14,42.72-6.42,61.49-17.25,4.79,2.08,9.41,4.78,14.28,6.84,15.15,6.41,31.11,9.54,47.55,10.41.79.04,3.1.21,3.35-.6v-17.62ZM1485.87,129.83h-18.41c.3,20.34-16.85,37.47-37.21,37.21v18.41c30.1.94,56.6-25.47,55.61-55.61M1522.09,193.66l-11.94,14.29c14.76,9.64,32.43,14.83,50.13,14.69v-18.41c-13.51-.27-26.57-3.74-38.19-10.58M1449.07,130.81l-.6-.97h-17.62l-.59.59v18.21c10.07-.16,18.06-7.81,18.81-17.82M1560.28,130.42l-.59-.59h-17.62c-1.1,0,.01,4.53.22,5.27,1.49,5.32,6.24,10.63,11.52,12.37,1.14.38,4.52,1.21,5.54,1.14.37-.03.85-.25.94-.57v-17.63ZM1374.24,186.01c5.04-6.68,8.76-13.78,12.35-21.32,10.44,13.01,26.81,21.29,43.67,20.75v-18.41c-20.35.26-37.51-16.86-37.2-37.21h-18.41c-.36,5.22-.64,10.18-1.69,15.35-5.44,26.66-26.14,48.84-52.36,56.13-6.77,1.88-13.35,2.63-20.36,2.94v18.41c28.79.32,56.79-13.84,74-36.64M1430.26,241.64c-1.91-1.16-4.91-.43-7.24-.59-20.87-1.46-40.87-8.73-57.9-20.69-16.75,12.09-36.97,19.24-57.64,20.69-2.33.16-5.34-.57-7.24.59v17.62c.72.87,2.27.66,3.35.6,21.61-1.14,42.72-6.42,61.49-17.25,4.79,2.08,9.41,4.78,14.28,6.84,15.15,6.41,31.11,9.54,47.55,10.41.79.04,3.1.21,3.35-.6v-17.62ZM1355.85,129.83h-18.41c.3,20.34-16.85,37.47-37.21,37.21v18.41c30.1.94,56.6-25.47,55.61-55.61M1392.07,193.66l-11.94,14.29c14.76,9.64,32.43,14.83,50.13,14.69v-18.41c-13.51-.27-26.57-3.74-38.19-10.58M1319.04,130.81l-.6-.97h-17.62l-.59.59v18.21c10.07-.16,18.06-7.81,18.81-17.82M1430.26,130.42l-.59-.59h-17.62c-1.1,0,.01,4.53.22,5.27,1.49,5.32,6.24,10.63,11.52,12.37,1.14.38,4.52,1.21,5.54,1.14.37-.03.85-.25.94-.57v-17.63ZM1244.21,186.01c5.04-6.68,8.76-13.78,12.35-21.32,10.44,13.01,26.81,21.29,43.67,20.75v-18.41c-20.35.26-37.51-16.86-37.2-37.21h-18.41c-.36,5.22-.64,10.18-1.69,15.35-5.44,26.66-26.14,48.84-52.36,56.13-6.77,1.88-13.35,2.63-20.36,2.94v18.41c28.79.32,56.79-13.84,74-36.64M1300.23,241.64c-1.91-1.16-4.91-.43-7.24-.59-20.87-1.46-40.87-8.73-57.9-20.69-16.75,12.09-36.97,19.24-57.64,20.69-2.33.16-5.34-.57-7.24.59v17.62c.72.87,2.27.66,3.35.6,21.61-1.14,42.72-6.42,61.49-17.25,4.79,2.08,9.41,4.78,14.28,6.84,15.15,6.41,31.11,9.54,47.55,10.41.79.04,3.1.21,3.35-.6v-17.62ZM1225.82,129.83h-18.41c.3,20.34-16.85,37.47-37.21,37.21v18.41c30.1.94,56.6-25.47,55.61-55.61M1262.04,193.66l-11.94,14.29c14.76,9.64,32.43,14.83,50.13,14.69v-18.41c-13.51-.27-26.57-3.74-38.19-10.58M1189.02,130.81l-.6-.97h-17.62l-.59.59v18.21c10.07-.16,18.06-7.81,18.81-17.82M1300.23,130.42l-.59-.59h-17.62c-1.1,0,.01,4.53.22,5.27,1.49,5.32,6.24,10.63,11.52,12.37,1.14.38,4.52,1.21,5.54,1.14.37-.03.85-.25.94-.57v-17.63ZM1114.19,186.01c5.04-6.68,8.76-13.78,12.35-21.32,10.44,13.01,26.81,21.29,43.67,20.75v-18.41c-20.35.26-37.51-16.86-37.2-37.21h-18.41c-.36,5.22-.64,10.18-1.69,15.35-5.44,26.66-26.14,48.84-52.36,56.13-6.77,1.88-13.35,2.63-20.36,2.94v18.41c28.79.32,56.79-13.84,74-36.64M1170.21,241.64c-1.91-1.16-4.91-.43-7.24-.59-20.87-1.46-40.87-8.73-57.9-20.69-16.75,12.09-36.97,19.24-57.64,20.69-2.33.16-5.34-.57-7.24.59v17.62c.72.87,2.27.66,3.35.6,21.61-1.14,42.72-6.42,61.49-17.25,4.79,2.08,9.41,4.78,14.28,6.84,15.15,6.41,31.11,9.54,47.55,10.41.79.04,3.1.21,3.35-.6v-17.62ZM1095.8,129.83h-18.41c.3,20.34-16.85,37.47-37.21,37.21v18.41c30.1.94,56.6-25.47,55.61-55.61M1132.02,193.66l-11.94,14.29c14.76,9.64,32.43,14.83,50.13,14.69v-18.41c-13.51-.27-26.57-3.74-38.19-10.58M1059,130.81l-.6-.97h-17.62l-.59.59v18.21c10.07-.16,18.06-7.81,18.81-17.82M1170.21,130.42l-.59-.59h-17.62c-1.1,0,.01,4.53.22,5.27,1.49,5.32,6.24,10.63,11.52,12.37,1.14.38,4.52,1.21,5.54,1.14.37-.03.85-.25.94-.57v-17.63ZM1616.3,73.91c-5.05,6.68-8.76,13.78-12.35,21.32-10.44-13.01-26.81-21.29-43.67-20.75v18.41c20.35-.26,37.51,16.86,37.21,37.21h18.41c.36-5.22.64-10.18,1.69-15.35,5.44-26.66,26.14-48.84,52.36-56.13,6.78-1.88,13.35-2.63,20.36-2.94v-18.41c-28.78-.32-56.79,13.84-74,36.64M1560.28,18.28c1.91,1.16,4.91.43,7.24.59,20.87,1.46,40.87,8.73,57.9,20.69,16.74-12.09,36.97-19.24,57.64-20.69,2.33-.16,5.34.57,7.24-.59V.66c-.72-.87-2.27-.66-3.35-.6-21.61,1.14-42.72,6.42-61.5,17.24-4.79-2.08-9.4-4.78-14.28-6.84-15.15-6.41-31.11-9.54-47.55-10.41-.79-.04-3.1-.21-3.35.6v17.63ZM1634.69,130.09h18.41c-.3-20.34,16.85-37.47,37.2-37.21v-18.41c-30.1-.94-56.6,25.47-55.61,55.61M1598.47,66.26l11.94-14.29c-14.76-9.64-32.43-14.83-50.13-14.69v18.41c13.51.27,26.57,3.74,38.19,10.58M1671.49,129.12l.6.97h17.62l.59-.59v-18.21c-10.07.17-18.06,7.81-18.81,17.83M1560.28,129.51l.59.59h17.62c1.11,0-.01-4.53-.22-5.27-1.49-5.32-6.24-10.63-11.52-12.37-1.14-.38-4.52-1.21-5.54-1.14-.37.02-.85.25-.94.57v17.63ZM1746.32,73.91c-5.05,6.68-8.76,13.78-12.35,21.32-10.44-13.01-26.81-21.29-43.67-20.75v18.41c20.35-.26,37.51,16.86,37.21,37.21h18.41c.36-5.22.64-10.18,1.69-15.35,5.44-26.66,26.14-48.84,52.36-56.13,6.78-1.88,13.35-2.63,20.36-2.94v-18.41c-28.78-.32-56.79,13.84-74,36.64M1690.3,18.28c1.91,1.16,4.91.43,7.24.59,20.87,1.46,40.87,8.73,57.9,20.69,16.74-12.09,36.97-19.24,57.64-20.69,2.33-.16,5.34.57,7.24-.59V.66c-.72-.87-2.27-.66-3.35-.6-21.61,1.14-42.72,6.42-61.5,17.24-4.79-2.08-9.4-4.78-14.28-6.84-15.15-6.41-31.11-9.54-47.55-10.41-.79-.04-3.1-.21-3.35.6v17.63ZM1764.71,130.09h18.41c-.3-20.34,16.85-37.47,37.2-37.21v-18.41c-30.1-.94-56.6,25.47-55.61,55.61M1728.49,66.26l11.94-14.29c-14.76-9.64-32.43-14.83-50.13-14.69v18.41c13.51.27,26.57,3.74,38.19,10.58M1801.52,129.12l.6.97h17.62l.59-.59v-18.21c-10.07.17-18.06,7.81-18.81,17.83M1690.3,129.51l.59.59h17.62c1.11,0-.01-4.53-.22-5.27-1.49-5.32-6.24-10.63-11.52-12.37-1.14-.38-4.52-1.21-5.54-1.14-.37.02-.85.25-.94.57v17.63ZM1876.35,73.91c-5.05,6.68-8.76,13.78-12.35,21.32-10.44-13.01-26.81-21.29-43.67-20.75v18.41c20.35-.26,37.51,16.86,37.21,37.21h18.41c.36-5.22.64-10.18,1.69-15.35,5.44-26.66,26.14-48.84,52.36-56.13,6.78-1.88,13.35-2.63,20.36-2.94v-18.41c-28.78-.32-56.79,13.84-74,36.64M1820.33,18.28c1.91,1.16,4.91.43,7.24.59,20.87,1.46,40.87,8.73,57.9,20.69,16.74-12.09,36.97-19.24,57.64-20.69,2.33-.16,5.34.57,7.24-.59V.66c-.72-.87-2.27-.66-3.35-.6-21.61,1.14-42.72,6.42-61.5,17.24-4.79-2.08-9.4-4.78-14.28-6.84-15.15-6.41-31.11-9.54-47.55-10.41-.79-.04-3.1-.21-3.35.6v17.63ZM1894.74,130.09h18.41c-.3-20.34,16.85-37.47,37.2-37.21v-18.41c-30.1-.94-56.6,25.47-55.61,55.61M1858.52,66.26l11.94-14.29c-14.76-9.64-32.43-14.83-50.13-14.69v18.41c13.51.27,26.57,3.74,38.19,10.58M1931.54,129.12l.6.97h17.62l.59-.59v-18.21c-10.07.17-18.06,7.81-18.81,17.83M1820.33,129.51l.59.59h17.62c1.11,0-.01-4.53-.22-5.27-1.49-5.32-6.24-10.63-11.52-12.37-1.14-.38-4.52-1.21-5.54-1.14-.37.02-.85.25-.94.57v17.63ZM2006.37,73.91c-5.05,6.68-8.76,13.78-12.35,21.32-10.44-13.01-26.81-21.29-43.67-20.75v18.41c20.35-.26,37.51,16.86,37.21,37.21h18.41c.36-5.22.64-10.18,1.69-15.35,5.44-26.66,26.14-48.84,52.36-56.13,6.78-1.88,13.35-2.63,20.36-2.94v-18.41c-28.78-.32-56.79,13.84-74,36.64M1950.35,18.28c1.91,1.16,4.91.43,7.24.59,20.87,1.46,40.87,8.73,57.9,20.69,16.74-12.09,36.97-19.24,57.64-20.69,2.33-.16,5.34.57,7.24-.59V.66c-.72-.87-2.27-.66-3.35-.6-21.6,1.14-42.72,6.42-61.5,17.24-4.79-2.08-9.4-4.78-14.28-6.84-15.15-6.41-31.11-9.54-47.55-10.41-.79-.04-3.1-.21-3.35.6v17.63ZM2024.76,130.09h18.41c-.3-20.34,16.85-37.47,37.21-37.21v-18.41c-30.1-.94-56.6,25.47-55.61,55.61M1988.54,66.26l11.94-14.29c-14.76-9.64-32.43-14.83-50.13-14.69v18.41c13.51.27,26.57,3.74,38.19,10.58M2061.56,129.12l.6.97h17.62l.59-.59v-18.21c-10.07.17-18.06,7.81-18.81,17.83M1950.35,129.51l.59.59h17.62c1.11,0-.01-4.53-.22-5.27-1.49-5.32-6.24-10.63-11.52-12.37-1.14-.38-4.52-1.21-5.54-1.14-.37.02-.85.25-.94.57v17.63ZM2024.35,186.01c5.04-6.68,8.76-13.78,12.35-21.32,10.44,13.01,26.81,21.29,43.67,20.75v-18.41c-20.35.26-37.51-16.86-37.21-37.21h-18.41c-.36,5.22-.64,10.18-1.69,15.35-5.44,26.66-26.14,48.84-52.36,56.13-6.77,1.88-13.35,2.63-20.36,2.94v18.41c28.79.32,56.79-13.84,74-36.64M2080.37,241.64c-1.91-1.16-4.91-.43-7.24-.59-20.88-1.46-40.87-8.73-57.9-20.69-16.75,12.09-36.97,19.24-57.64,20.69-2.33.16-5.34-.57-7.24.59v17.62c.72.87,2.27.66,3.35.6,21.61-1.14,42.72-6.42,61.49-17.25,4.79,2.08,9.4,4.78,14.28,6.84,15.15,6.41,31.11,9.54,47.55,10.41.79.04,3.1.21,3.35-.6v-17.62ZM2005.96,129.83h-18.41c.3,20.34-16.85,37.47-37.21,37.21v18.41c30.1.94,56.6-25.47,55.61-55.61M2042.18,193.66l-11.94,14.29c14.76,9.64,32.43,14.83,50.13,14.69v-18.41c-13.51-.27-26.57-3.74-38.19-10.58M1969.16,130.81l-.6-.97h-17.62l-.59.59v18.21c10.07-.16,18.06-7.81,18.81-17.82M2080.37,130.42l-.59-.59h-17.62c-1.1,0,.01,4.53.22,5.27,1.49,5.32,6.24,10.63,11.52,12.37,1.14.38,4.52,1.21,5.54,1.14.37-.03.85-.25.94-.57v-17.63ZM1894.33,186.01c5.04-6.68,8.76-13.78,12.35-21.32,10.44,13.01,26.81,21.29,43.67,20.75v-18.41c-20.35.26-37.51-16.86-37.2-37.21h-18.41c-.36,5.22-.64,10.18-1.69,15.35-5.44,26.66-26.14,48.84-52.36,56.13-6.77,1.88-13.35,2.63-20.36,2.94v18.41c28.79.32,56.79-13.84,74-36.64M1950.35,241.64c-1.91-1.16-4.91-.43-7.24-.59-20.87-1.46-40.87-8.73-57.9-20.69-16.75,12.09-36.97,19.24-57.64,20.69-2.33.16-5.34-.57-7.24.59v17.62c.72.87,2.27.66,3.35.6,21.61-1.14,42.72-6.42,61.49-17.25,4.79,2.08,9.41,4.78,14.28,6.84,15.15,6.41,31.11,9.54,47.55,10.41.79.04,3.1.21,3.35-.6v-17.62ZM1875.94,129.83h-18.41c.3,20.34-16.85,37.47-37.21,37.21v18.41c30.1.94,56.6-25.47,55.61-55.61M1912.16,193.66l-11.94,14.29c14.76,9.64,32.43,14.83,50.13,14.69v-18.41c-13.51-.27-26.57-3.74-38.19-10.58M1839.14,130.81l-.6-.97h-17.62l-.59.59v18.21c10.07-.16,18.06-7.81,18.81-17.82M1950.35,130.42l-.59-.59h-17.62c-1.1,0,.01,4.53.22,5.27,1.49,5.32,6.24,10.63,11.52,12.37,1.14.38,4.52,1.21,5.54,1.14.37-.03.85-.25.94-.57v-17.63ZM1764.31,186.01c5.04-6.68,8.76-13.78,12.35-21.32,10.44,13.01,26.81,21.29,43.67,20.75v-18.41c-20.35.26-37.51-16.86-37.2-37.21h-18.41c-.36,5.22-.64,10.18-1.69,15.35-5.44,26.66-26.14,48.84-52.36,56.13-6.77,1.88-13.35,2.63-20.36,2.94v18.41c28.79.32,56.79-13.84,74-36.64M1820.33,241.64c-1.91-1.16-4.91-.43-7.24-.59-20.87-1.46-40.87-8.73-57.9-20.69-16.75,12.09-36.97,19.24-57.64,20.69-2.33.16-5.34-.57-7.24.59v17.62c.72.87,2.27.66,3.35.6,21.61-1.14,42.72-6.42,61.49-17.25,4.79,2.08,9.41,4.78,14.28,6.84,15.15,6.41,31.11,9.54,47.55,10.41.79.04,3.1.21,3.35-.6v-17.62ZM1745.92,129.83h-18.41c.3,20.34-16.85,37.47-37.21,37.21v18.41c30.1.94,56.6-25.47,55.61-55.61M1782.14,193.66l-11.94,14.29c14.76,9.64,32.43,14.83,50.13,14.69v-18.41c-13.51-.27-26.57-3.74-38.19-10.58M1709.11,130.81l-.6-.97h-17.62l-.59.59v18.21c10.07-.16,18.06-7.81,18.81-17.82M1820.33,130.42l-.59-.59h-17.62c-1.1,0,.01,4.53.22,5.27,1.49,5.32,6.24,10.63,11.52,12.37,1.14.38,4.52,1.21,5.54,1.14.37-.03.85-.25.94-.57v-17.63ZM1634.28,186.01c5.04-6.68,8.76-13.78,12.35-21.32,10.44,13.01,26.81,21.29,43.67,20.75v-18.41c-20.35.26-37.51-16.86-37.2-37.21h-18.41c-.36,5.22-.64,10.18-1.69,15.35-5.44,26.66-26.14,48.84-52.36,56.13-6.77,1.88-13.35,2.63-20.36,2.94v18.41c28.79.32,56.79-13.84,74-36.64M1690.3,241.64c-1.91-1.16-4.91-.43-7.24-.59-20.87-1.46-40.87-8.73-57.9-20.69-16.75,12.09-36.97,19.24-57.64,20.69-2.33.16-5.34-.57-7.24.59v17.62c.72.87,2.27.66,3.35.6,21.61-1.14,42.72-6.42,61.49-17.25,4.79,2.08,9.41,4.78,14.28,6.84,15.15,6.41,31.11,9.54,47.55,10.41.79.04,3.1.21,3.35-.6v-17.62ZM1615.89,129.83h-18.41c.3,20.34-16.85,37.47-37.21,37.21v18.41c30.1.94,56.6-25.47,55.61-55.61M1652.11,193.66l-11.94,14.29c14.76,9.64,32.43,14.83,50.13,14.69v-18.41c-13.51-.27-26.57-3.74-38.19-10.58M1579.09,130.81l-.6-.97h-17.62l-.59.59v18.21c10.07-.16,18.06-7.81,18.81-17.82M1690.3,130.42l-.59-.59h-17.62c-1.1,0,.01,4.53.22,5.27,1.49,5.32,6.24,10.63,11.52,12.37,1.14.38,4.52,1.21,5.54,1.14.37-.03.85-.25.94-.57v-17.63Z"/>
    </clipPath>
    <linearGradient id="linear-gradient" x1="4068.01" y1="2940.3" x2="4069.94" y2="2940.3" gradientTransform="translate(-4393454.35 3175658.01) scale(1080 -1080)" gradientUnits="userSpaceOnUse">
      <stop offset="0" stop-color="#9d75b4"/>
      <stop offset=".22" stop-color="#9879b6"/>
      <stop offset=".46" stop-color="#8b85bf"/>
      <stop offset=".7" stop-color="#7599cd"/>
      <stop offset=".95" stop-color="#57b5e1"/>
      <stop offset="1" stop-color="#51bbe6"/>
    </linearGradient>
  </defs>
  <g id="Layer_1-2" data-name="Layer 1">
    <g class="cls-4">
      <g class="cls-2">
        <rect class="cls-3" x="0" y="-.21" width="2080.37" height="260.35"/>
      </g>
    </g>
  </g>
</svg>