<?xml version="1.0" encoding="UTF-8"?>
<svg id="Layer_2" data-name="Layer 2" xmlns="http://www.w3.org/2000/svg" xmlns:xlink="http://www.w3.org/1999/xlink" viewBox="0 0 529.11 145.7">
  <defs>
    <style>
      .cls-1 {
        fill: #9f7ab5;
      }

      .cls-2 {
        fill: url(#linear-gradient-2);
      }

      .cls-3 {
        fill: #9d75b4;
      }

      .cls-4 {
        fill: #532b85;
        opacity: .61;
      }

      .cls-5 {
        fill: #21409a;
        opacity: .48;
      }

      .cls-6 {
        fill: #51bbe6;
      }

      .cls-7 {
        fill: #2e96c8;
      }

      .cls-8 {
        fill: url(#linear-gradient);
      }
    </style>
    <linearGradient id="linear-gradient" x1="140.04" y1="37.82" x2="112.66" y2="53.95" gradientUnits="userSpaceOnUse">
      <stop offset="0" stop-color="#fff" stop-opacity=".34"/>
      <stop offset=".2" stop-color="#fff" stop-opacity=".32"/>
      <stop offset=".42" stop-color="#fff" stop-opacity=".27"/>
      <stop offset=".65" stop-color="#fff" stop-opacity=".19"/>
      <stop offset=".89" stop-color="#fff" stop-opacity=".07"/>
      <stop offset="1" stop-color="#fff" stop-opacity="0"/>
    </linearGradient>
    <linearGradient id="linear-gradient-2" x1="-822.97" y1="1456" x2="-840.18" y2="1466.14" gradientTransform="translate(351.26 -1683.71) rotate(-24.78) scale(1.15 1)" xlink:href="#linear-gradient"/>
  </defs>
  <g id="Layer_1-2" data-name="Layer 1">
    <g>
      <g>
        <path class="cls-3" d="M173.47,96.02c-.66,0-1.24-.24-1.72-.72-.48-.48-.72-1.05-.72-1.72,0-.29.04-.55.11-.77l24.7-70.66c.22-.81.74-1.62,1.55-2.44.81-.81,1.96-1.22,3.43-1.22h24.03c1.48,0,2.62.41,3.43,1.22.81.81,1.33,1.63,1.55,2.44l24.7,70.66c.07.22.11.48.11.77,0,.66-.24,1.24-.72,1.72-.48.48-1.05.72-1.72.72h-20.49c-1.4,0-2.42-.31-3.05-.94-.63-.63-1.05-1.24-1.27-1.83l-2.66-7.31h-23.81l-2.66,7.31c-.22.59-.63,1.2-1.22,1.83-.59.63-1.63.94-3.1.94h-20.49ZM206.58,64.35h12.52l-6.31-20.6-6.2,20.6Z"/>
        <path class="cls-3" d="M263.73,96.02c-.81,0-1.51-.29-2.1-.89-.59-.59-.89-1.29-.89-2.1V21.48c0-.81.29-1.51.89-2.1.59-.59,1.29-.89,2.1-.89h17.5c1.48,0,2.58.41,3.32,1.22.74.81,1.22,1.4,1.44,1.77l16.06,26.58,16.06-26.58c.22-.37.7-.96,1.44-1.77.74-.81,1.85-1.22,3.32-1.22h17.5c.81,0,1.51.3,2.1.89.59.59.89,1.29.89,2.1v71.55c0,.81-.3,1.51-.89,2.1s-1.29.89-2.1.89h-20.05c-.81,0-1.51-.29-2.1-.89-.59-.59-.89-1.29-.89-2.1v-30.35l-7.31,11.96c-.37.59-.87,1.2-1.5,1.83-.63.63-1.5.94-2.6.94h-7.75c-1.11,0-1.98-.31-2.6-.94-.63-.63-1.13-1.24-1.5-1.83l-7.31-11.96v30.35c0,.81-.3,1.51-.89,2.1s-1.29.89-2.1.89h-20.05Z"/>
        <path class="cls-3" d="M358.54,96.02c-.81,0-1.51-.29-2.1-.89-.59-.59-.89-1.29-.89-2.1V21.48c0-.81.29-1.51.89-2.1.59-.59,1.29-.89,2.1-.89h21.15c.81,0,1.51.3,2.1.89.59.59.89,1.29.89,2.1v21.93l12.52-22.48c.37-.59.9-1.14,1.61-1.66.7-.52,1.64-.78,2.82-.78h24.48c.66,0,1.24.24,1.72.72.48.48.72,1.05.72,1.72,0,.44-.11.85-.33,1.22l-19.94,33.45,21.82,36.77c.22.3.33.7.33,1.22,0,.66-.24,1.24-.72,1.72s-1.05.72-1.72.72h-25.25c-1.48,0-2.57-.35-3.27-1.05-.7-.7-1.13-1.2-1.27-1.5l-13.51-24.14v23.7c0,.81-.3,1.51-.89,2.1s-1.29.89-2.1.89h-21.15Z"/>
        <path class="cls-3" d="M436.2,96.02c-.66,0-1.24-.24-1.72-.72-.48-.48-.72-1.05-.72-1.72,0-.29.04-.55.11-.77l24.7-70.66c.22-.81.74-1.62,1.55-2.44.81-.81,1.96-1.22,3.43-1.22h24.03c1.48,0,2.62.41,3.44,1.22.81.81,1.33,1.63,1.55,2.44l24.7,70.66c.07.22.11.48.11.77,0,.66-.24,1.24-.72,1.72-.48.48-1.05.72-1.72.72h-20.49c-1.4,0-2.42-.31-3.05-.94-.63-.63-1.05-1.24-1.28-1.83l-2.66-7.31h-23.81l-2.66,7.31c-.22.59-.63,1.2-1.22,1.83-.59.63-1.63.94-3.1.94h-20.49ZM469.32,64.35h12.52l-6.31-20.6-6.2,20.6Z"/>
      </g>
      <g>
        <path class="cls-7" d="M367.68,145.7c-2.44,0-4.51-.39-6.2-1.17-1.7-.78-3-1.79-3.9-3.02-.9-1.23-1.38-2.54-1.44-3.92,0-.24.09-.45.27-.63s.41-.27.68-.27h.9c.3,0,.53.09.7.27.16.18.26.39.29.63.12.84.5,1.68,1.13,2.5.63.83,1.56,1.52,2.8,2.08,1.23.56,2.83.83,4.78.83,2.95,0,5.1-.53,6.45-1.6,1.35-1.07,2.03-2.5,2.03-4.31,0-1.2-.35-2.17-1.06-2.91-.71-.74-1.78-1.4-3.23-1.99-1.44-.59-3.29-1.24-5.55-1.96-2.14-.69-3.9-1.41-5.28-2.14-1.38-.74-2.4-1.63-3.05-2.68s-.97-2.41-.97-4.06c0-1.53.41-2.91,1.22-4.13s1.99-2.19,3.54-2.91,3.44-1.08,5.66-1.08c1.77,0,3.32.24,4.65.72s2.42,1.12,3.29,1.92,1.53,1.65,1.99,2.57c.45.92.69,1.81.72,2.68,0,.21-.08.41-.23.61-.15.2-.39.29-.72.29h-.9c-.15,0-.34-.06-.56-.18-.23-.12-.37-.36-.43-.72-.18-1.5-.97-2.74-2.37-3.72-1.4-.98-3.21-1.47-5.44-1.47s-4.05.44-5.46,1.31c-1.41.87-2.12,2.24-2.12,4.11,0,1.2.32,2.19.95,2.96s1.62,1.44,2.98,2.03c1.35.59,3.1,1.23,5.23,1.92,2.26.72,4.12,1.44,5.59,2.17,1.47.72,2.57,1.6,3.29,2.64.72,1.04,1.08,2.38,1.08,4.04,0,1.83-.46,3.39-1.38,4.67-.92,1.28-2.22,2.26-3.9,2.93-1.68.68-3.7,1.02-6.05,1.02Z"/>
        <path class="cls-7" d="M393.99,145.25c-.3,0-.54-.09-.72-.27-.18-.18-.27-.42-.27-.72v-11.05l-11.01-18.05c-.03-.09-.07-.18-.11-.27-.04-.09-.07-.19-.07-.32,0-.24.09-.45.27-.63s.39-.27.63-.27h.9c.21,0,.41.05.59.16.18.11.33.28.45.52l9.79,15.93,9.79-15.93c.15-.24.31-.41.47-.52.16-.1.35-.16.56-.16h.9c.24,0,.45.09.63.27s.27.39.27.63c0,.12-.02.23-.04.32-.03.09-.08.18-.14.27l-11.01,18.05v11.05c0,.3-.09.54-.27.72-.18.18-.44.27-.77.27h-.86Z"/>
        <path class="cls-7" d="M421.37,145.7c-2.44,0-4.51-.39-6.2-1.17-1.7-.78-3-1.79-3.9-3.02-.9-1.23-1.38-2.54-1.44-3.92,0-.24.09-.45.27-.63s.41-.27.68-.27h.9c.3,0,.53.09.7.27.16.18.26.39.29.63.12.84.5,1.68,1.13,2.5.63.83,1.56,1.52,2.8,2.08,1.23.56,2.83.83,4.78.83,2.95,0,5.1-.53,6.45-1.6,1.35-1.07,2.03-2.5,2.03-4.31,0-1.2-.35-2.17-1.06-2.91-.71-.74-1.78-1.4-3.23-1.99-1.44-.59-3.29-1.24-5.55-1.96-2.14-.69-3.9-1.41-5.28-2.14-1.38-.74-2.4-1.63-3.05-2.68s-.97-2.41-.97-4.06c0-1.53.41-2.91,1.22-4.13s1.99-2.19,3.54-2.91,3.44-1.08,5.66-1.08c1.77,0,3.32.24,4.65.72s2.42,1.12,3.29,1.92,1.53,1.65,1.99,2.57c.45.92.69,1.81.72,2.68,0,.21-.08.41-.23.61-.15.2-.39.29-.72.29h-.9c-.15,0-.34-.06-.56-.18-.23-.12-.37-.36-.43-.72-.18-1.5-.97-2.74-2.37-3.72-1.4-.98-3.21-1.47-5.44-1.47s-4.05.44-5.46,1.31c-1.41.87-2.12,2.24-2.12,4.11,0,1.2.32,2.19.95,2.96s1.62,1.44,2.98,2.03c1.35.59,3.1,1.23,5.23,1.92,2.26.72,4.12,1.44,5.59,2.17,1.47.72,2.57,1.6,3.29,2.64.72,1.04,1.08,2.38,1.08,4.04,0,1.83-.46,3.39-1.38,4.67-.92,1.28-2.22,2.26-3.9,2.93-1.68.68-3.7,1.02-6.05,1.02Z"/>
        <path class="cls-7" d="M446.73,145.25c-.3,0-.54-.09-.72-.27s-.27-.42-.27-.72v-27.88h-8.93c-.3,0-.54-.09-.72-.27-.18-.18-.27-.42-.27-.72v-.68c0-.33.09-.59.27-.77.18-.18.42-.27.72-.27h20.66c.33,0,.59.09.77.27.18.18.27.44.27.77v.68c0,.3-.09.54-.27.72-.18.18-.44.27-.77.27h-8.89v27.88c0,.3-.09.54-.27.72s-.44.27-.77.27h-.81Z"/>
        <path class="cls-7" d="M464.96,145.25c-.3,0-.54-.09-.72-.27-.18-.18-.27-.42-.27-.72v-29.55c0-.33.09-.59.27-.77.18-.18.42-.27.72-.27h17.6c.33,0,.59.09.77.27.18.18.27.44.27.77v.68c0,.3-.09.54-.27.72-.18.18-.44.27-.77.27h-15.75v11.51h14.75c.33,0,.59.09.77.27.18.18.27.44.27.77v.68c0,.3-.09.54-.27.72-.18.18-.44.27-.77.27h-14.75v11.96h16.11c.33,0,.59.09.77.27s.27.44.27.77v.68c0,.3-.09.54-.27.72-.18.18-.44.27-.77.27h-17.96Z"/>
        <path class="cls-7" d="M491.71,145.25c-.3,0-.55-.09-.75-.27s-.29-.42-.29-.72v-29.55c0-.33.1-.59.29-.77.2-.18.44-.27.75-.27h1.13c.3,0,.53.07.68.23.15.15.24.27.27.36l10.24,19.94,10.29-19.94c.06-.09.16-.21.29-.36.14-.15.35-.23.65-.23h1.08c.33,0,.59.09.77.27s.27.44.27.77v29.55c0,.3-.09.54-.27.72-.18.18-.44.27-.77.27h-.81c-.3,0-.54-.09-.72-.27-.18-.18-.27-.42-.27-.72v-24.45l-8.62,16.96c-.12.3-.29.53-.52.68-.23.15-.52.23-.88.23h-.99c-.36,0-.65-.07-.86-.23-.21-.15-.39-.38-.54-.68l-8.62-16.96v24.45c0,.3-.09.54-.27.72s-.42.27-.72.27h-.81Z"/>
      </g>
      <circle class="cls-1" cx="517.38" cy="12.78" r="11.72"/>
      <g>
        <g>
          <path class="cls-6" d="M66.84,119.38c-.3,0-.6-.02-.9-.07-20.06-3.02-36.19-19.15-39.22-39.22-.05-.36-.1-.69-.14-1.02-.24-1.91-.37-3.89-.37-5.87s.13-3.96.38-5.91c.04-.3.08-.63.13-.96,3.03-20.09,19.15-36.22,39.22-39.24.36-.05.71-.1,1.05-.14,3.76-.48,7.87-.49,11.76,0,.28.03.62.08.96.13,20.09,3.03,36.21,19.15,39.24,39.22.49,3.26-1.75,6.3-5.01,6.79-3.25.49-6.3-1.75-6.79-5.01-2.25-14.93-14.26-26.94-29.19-29.19-.21-.03-.44-.07-.67-.09-3.01-.39-5.95-.38-8.83,0-.29.03-.52.07-.75.1-14.91,2.25-26.92,14.25-29.17,29.19-.03.21-.07.45-.1.69-.19,1.49-.28,2.96-.28,4.42s.09,2.95.28,4.39c.03.28.07.51.1.75,2.25,14.91,14.25,26.92,29.19,29.17,3.26.49,5.5,3.53,5.01,6.79-.45,2.96-2.99,5.08-5.89,5.08Z"/>
          <g>
            <path class="cls-3" d="M72.62,145.25C32.58,145.25,0,112.67,0,72.62c0-3.67.28-7.37.83-10.98.63-4.15,4.52-7.01,8.66-6.38,4.15.63,7.01,4.51,6.38,8.66-.43,2.86-.65,5.78-.65,8.7,0,31.66,25.75,57.42,57.41,57.42s57.42-25.76,57.42-57.42S104.28,15.21,72.62,15.21c-3.27,0-6.53.27-9.7.82-4.15.7-8.07-2.08-8.78-6.22-.71-4.14,2.08-8.07,6.22-8.78,4.02-.68,8.14-1.03,12.26-1.03,40.05,0,72.63,32.58,72.63,72.62s-32.58,72.63-72.63,72.63Z"/>
            <circle class="cls-5" cx="119.02" cy="119.38" r="23.19"/>
            <path class="cls-8" d="M131.67,100.93c-.71-3.93-1.42-7.87-2.11-11.8-.04-.2-.08-.4-.11-.61,1.25-4.73,5.21-21.91-3.5-40.78-.29-.63-.58-1.24-.89-1.84-.15-.27-.28-.55-.44-.82-9.44-18.02-25.18-25.46-29.23-27.23-1.71-2.98-3.4-5.95-5.1-8.92,3.92,1.12,28.83,8.71,41.38,34.7,13.49,27.91,1.58,53.98,0,57.3Z"/>
            <path class="cls-2" d="M62.21,33.77c1.58-.48,20.94-5.97,37.08,7.2,14.83,12.1,14.7,29.98,14.65,32.12-2.17-1.29-4.34-2.58-6.5-3.88-.28-2.21-2.12-14.98-13.83-23.71-11.66-8.69-24.35-6.86-26.56-6.5-1.61-1.75-3.23-3.49-4.84-5.24Z"/>
          </g>
        </g>
        <circle class="cls-4" cx="43.9" cy="46.33" r="19.75"/>
      </g>
    </g>
  </g>
</svg>